<?xml version="1.0" standalone="no"?>
<!DOCTYPE svg PUBLIC "-//W3C//DTD SVG 1.1//EN" "http://www.w3.org/Graphics/SVG/1.1/DTD/svg11.dtd" >
<svg xmlns="http://www.w3.org/2000/svg">
<metadata>Generated by IcoMoon</metadata>
<defs>
<font id="icomoon" horiz-adv-x="1024">
<font-face units-per-em="1024" ascent="960" descent="-64" />
<missing-glyph horiz-adv-x="1024" />
<glyph unicode="&#x20;" horiz-adv-x="512" d="" />
<glyph unicode="&#xe900;" glyph-name="alarm-bell" horiz-adv-x="853" d="M737.272 295.164v205.813c0 142.797-88.893 264.328-211.943 307.469v52.734c0.008 54.492-44.259 98.82-98.659 98.82-54.407 0-98.666-44.328-98.666-98.82v-52.734c-123.050-43.141-211.943-164.664-211.943-307.469v-205.813c-33.697-26.195-116.061-100.945-116.061-205.867 0-17.078 13.83-30.93 30.882-30.93h223.409c4.719-32.32 23.027-61.844 52.808-84.422 32.301-24.469 74.766-37.945 119.571-37.945s87.27 13.477 119.564 37.945c29.789 22.578 48.097 52.094 52.808 84.422h223.409c17.059 0 30.882 13.852 30.882 30.93 0 104.93-82.356 179.672-116.061 205.867v0zM391.493 861.024c0 20.764 16.464 37.659 36.706 37.659 20.235 0 36.699-16.895 36.699-37.659v-38.988c-12.041 1.537-24.285 2.349-36.706 2.349s-24.657-0.812-36.699-2.341v38.98zM426.663 763.784c137.456 0 249.275-117.484 249.275-261.895v-191.854h-498.542v191.854c0 144.411 111.819 261.895 249.267 261.895zM426.667-2.683c-52.107 0-97.209 26.715-108.578 61.317h217.157c-11.377-34.602-56.471-61.317-108.578-61.317v0zM64.229 119.952c14.284 62.467 68.134 109.101 89.779 125.701h545.348c21.715-16.537 75.542-62.924 89.748-125.701h-724.875z" />
<glyph unicode="&#xe901;" glyph-name="alarm-comments" d="M928 960.032h-448c-52.928 0-96-43.072-96-96v-160h-288c-52.928 0-96-43.072-96-96v-416c0-52.928 43.072-96 96-96h466.752l150.624-150.624c20.064-20.064 54.624-5.984 54.624 22.624 0 271.936 0 214.496 0 480h160c52.928 0 96 43.072 96 96v320c0 52.928-43.072 96-96 96zM704 45.28l-105.344 105.344c-2.944 2.976-6.496 5.312-10.432 6.944-3.904 1.6-8.064 2.464-12.224 2.464h-480c-17.664 0-32 14.336-32 32v416c0 17.664 14.336 32 32 32h576c17.952 0 32-14.048 32-32 0-224.544 0-362.816 0-562.752zM960 544.032c0-17.664-14.336-32-32-32h-160v96c0 52.928-43.072 96-96 96h-224v160c0 17.92 14.048 32 32 32h448c17.664 0 32-14.336 32-32v-320zM201.376 438.72c-12.672-12.608-12-33.152 0-45.088 12.192-12.256 32.992-12.448 45.44 0 12 12 12.672 32.416 0 45.088-11.84 12.128-33.6 11.84-45.44 0zM361.376 438.72c-12.672-12.608-12-33.152 0-45.088 12.192-12.256 32.992-12.448 45.44 0 12 12 12.672 32.416 0 45.088-11.84 12.128-33.6 11.84-45.44 0zM521.376 438.72c-12.544-11.808-12.224-33.568 0-45.088 11.552-12.256 33.248-12.544 45.12 0 12.448 11.808 13.088 32.672 0 45.088-11.52 12.128-33.632 11.84-45.12 0z" />
<glyph unicode="&#xe902;" glyph-name="arrow_down" horiz-adv-x="1792" d="M1629.056 930.816l-733.056-766.080-733.184 766.080c-17.337 17.909-41.597 29.025-68.453 29.025-25.055 0-47.851-9.676-64.853-25.495l0.058 0.054c-18.198-16.905-29.548-40.968-29.548-67.682 0-24.755 9.747-47.234 25.612-63.808l-0.032 0.034 801.792-837.76c17.33-17.997 41.631-29.176 68.544-29.176s51.214 11.179 68.515 29.146l801.949 837.79c15.833 16.54 25.58 39.019 25.58 63.774 0 26.714-11.35 50.776-29.491 67.629l-0.058 0.053c-16.947 15.7-39.712 25.332-64.727 25.332-26.945 0-51.279-11.175-68.622-29.144l-0.027-0.028z" />
<glyph unicode="&#xe903;" glyph-name="arrow_grey" horiz-adv-x="1792" d="M0 447.981c0-56.524 44.551-102.399 99.556-102.399h1352.521l-228.282-234.749c-19.413-20.019-29.12-46.233-29.12-72.396 0-26.214 9.707-52.428 29.12-72.447 38.877-39.987 101.946-39.987 140.822 0l398.225 409.595c38.877 40.038 38.877 104.805 0 144.792l-398.225 409.595c-38.877 40.038-101.946 40.038-140.822 0-38.877-39.987-38.877-104.754 0-144.792l228.282-234.8h-1352.521c-55.005 0-99.556-45.823-99.556-102.399v0z" />
<glyph unicode="&#xe904;" glyph-name="camera" d="M928 832h-204.224l-55.168 110.304c-5.408 10.848-16.48 17.696-28.608 17.696h-256c-12.128 0-23.2-6.848-28.64-17.696l-55.136-110.304h-204.224c-52.928 0-96-43.072-96-96v-704c0-52.928 43.072-96 96-96h832c52.928 0 96 43.072 96 96v704c0 52.928-43.072 96-96 96zM64 480h190.368c-19.232-38.624-30.368-81.984-30.368-128s11.136-89.376 30.368-128h-190.368v256zM960 32c0-17.664-14.368-32-32-32h-832c-17.632 0-32 14.336-32 32v128h224c3.008 0 5.696 0.928 8.416 1.696 52.8-59.744 129.76-97.696 215.584-97.696s162.784 37.952 215.552 97.696c2.752-0.768 5.44-1.696 8.448-1.696h224v-128zM288 352c0 123.52 100.512 224 224 224s224-100.48 224-224c0-123.488-100.512-224-224-224s-224 100.512-224 224zM960 224h-190.368c19.232 38.624 30.368 81.984 30.368 128s-11.136 89.376-30.368 128h190.368v-256zM960 544h-224c-3.008 0-5.696-0.928-8.448-1.728-52.768 59.776-129.728 97.728-215.552 97.728s-162.784-37.952-215.584-97.728c-2.72 0.8-5.408 1.728-8.416 1.728h-224v192c0 17.664 14.368 32 32 32h224c12.128 0 23.2 6.848 28.64 17.696l55.136 110.304h216.448l55.168-110.304c5.408-10.848 16.48-17.696 28.608-17.696h224c17.632 0 32-14.336 32-32v-192zM512 448c52.928 0 96-43.072 96-96 0-17.664 14.304-32 32-32s32 14.336 32 32c0 88.224-71.776 160-160 160-17.696 0-32-14.304-32-32 0-17.664 14.304-32 32-32z" />
<glyph unicode="&#xe905;" glyph-name="icon_scroll" horiz-adv-x="512" d="M256.004 719.604c9.591 0 17.375-7.833 17.375-17.523v-105.139c0-9.69-7.784-17.523-17.375-17.523s-17.375 7.833-17.375 17.523v105.139c0 9.69 7.784 17.523 17.375 17.523zM273.38 25.696l57.339 57.826c3.475 3.505 6.95 5.257 12.163 5.257s8.688-1.752 12.163-5.257c6.95-7.027 6.95-17.523 0-24.55l-86.877-87.615c-3.475-3.505-7.819-5.239-12.163-5.239s-8.688 1.735-12.163 5.239l-86.877 87.615c-6.95 7.027-6.95 17.523 0 24.55 3.475 3.505 6.95 5.257 12.163 5.257s8.688-1.752 12.163-5.257l57.339-57.826v238.314c0 10.496 6.95 17.523 17.375 17.523s17.375-7.027 17.375-17.523v-238.314zM192.474 187.254c8.861-3.312 13.501-13.283 10.46-22.202-3.11-9.024-13.049-13.948-22.102-10.847-19.721 7.027-65.818 26.46-102.95 74.333-45.124 58.229-47.73 120.717-47.765 140.605v332.939c0.035 17.295 2.102 91.874 59.963 154.904 65.28 71.074 151.41 72.843 165.918 72.896 14.387 0 101.021-1.489 166.37-72.896 57.739-63.083 59.528-137.696 59.511-154.904v-332.939c0.087-19.608-2.207-78.276-43.369-134.945-38.452-52.937-88.511-73.352-107.311-79.975-9-3.137-18.974 1.717-22.119 10.794-3.128 9.094 1.72 19.153 10.721 22.324 16.646 6.045 56.088 22.955 87.59 64.345 37.114 48.732 39.616 100.407 39.738 117.457v332.939c0 14.001-1.477 78.871-52.318 132.895-55.185 58.632-126.546 59.859-138.813 59.859-11.867-0.035-88.059-1.612-143.713-65.274-50.146-57.353-48.113-124.519-47.418-138.205v-322.215c0.174-17.138 2.867-67.236 38.487-115.284 31.971-43.142 72.664-60.577 89.119-66.605z" />
<glyph unicode="&#xe906;" glyph-name="icona_skill" horiz-adv-x="928" d="M464.876 932.42c-0.531 0-1.062 0-1.592-0.027h-0.013c-14.172-0.414-27.322-6.367-37.049-16.737s-14.835-23.945-14.424-38.199c0.425-14.268 6.33-27.495 16.653-37.278 10.31-9.783 23.66-15.149 38.004-14.508 29.22 0.854 52.309 25.506 51.459 54.95-0.849 28.883-24.496 51.8-53.039 51.8v0zM464.823 798.949c-20.382 0-39.689 7.688-54.578 21.809-15.486 14.668-24.35 34.529-24.973 55.911s7.059 41.736 21.629 57.299c14.583 15.563 34.328 24.479 55.586 25.119 44.068 0.641 80.639-33.541 81.953-77.68 1.287-44.152-33.36-81.124-77.216-82.432-0.796-0.013-1.592-0.027-2.402-0.027v0zM463.835 673.28h-0.080c-7.341 0.057-13.235 6.436-13.195 14.274l0.757 121.836c0.040 7.782 5.974 14.076 13.275 14.076h0.080c7.341-0.057 13.235-6.436 13.195-14.274l-0.757-121.836c-0.040-7.796-5.987-14.076-13.275-14.076zM79.564 263.002c-8.148 0-16.414-1.909-24.151-5.899-12.619-6.527-21.961-17.578-26.3-31.152-4.326-13.574-3.145-28.016 3.344-40.695v0c6.476-12.693 17.489-22.076 30.971-26.441 13.482-4.391 27.866-3.19 40.459 3.35 26.022 13.441 36.319 45.674 22.956 71.874-9.408 18.379-28.025 28.963-47.28 28.963zM79.737 129.518c-8.187 0-16.414 1.295-24.429 3.884-20.236 6.527-36.73 20.621-46.457 39.654-9.727 19.006-11.505 40.695-5.003 61.050 6.502 20.368 20.515 36.958 39.437 46.741 38.986 20.181 87.075 4.645 107.165-34.609 20.050-39.294 4.591-87.65-34.421-107.818-11.425-5.899-23.819-8.903-36.292-8.903zM150.755 236.373c-5 0-9.829 2.482-12.428 6.872-3.821 6.432-1.335 14.558 5.525 18.134l53.504 27.916c6.86 3.603 15.496 1.254 19.303-5.191 3.821-6.432 1.335-14.572-5.525-18.134l-53.504-27.916c-2.173-1.148-4.545-1.681-6.874-1.681zM82.010 700.566c-5.612 0-11.251-0.874-16.739-2.649-13.886-4.451-25.205-14.062-31.867-27.032h-0.014c-6.663-12.97-7.878-27.756-3.427-41.641 4.451-13.871 14.063-25.203 27.048-31.865 26.747-13.776 59.734-3.154 73.511 23.619 13.749 26.786 3.154 59.758-23.621 73.492-7.824 4.028-16.33 6.075-24.89 6.075v0zM81.805 564.053c-12.589 0-25.341 2.908-37.274 9.038-19.47 9.994-33.875 26.964-40.565 47.812-6.69 20.82-4.874 43.006 5.134 62.461 10.008 19.469 26.979 33.872 47.815 40.562 20.822 6.703 43.009 4.86 62.479-5.133 40.142-20.629 56.034-70.093 35.417-110.259-14.527-28.247-43.268-44.48-73.006-44.48v0zM286.825 523.093c-2.070 0-4.18 0.467-6.142 1.453l-136.77 68.9c-6.656 3.36-9.294 11.388-5.898 17.948 3.409 6.547 11.54 9.161 18.209 5.814l136.77-68.9c6.656-3.36 9.294-11.388 5.898-17.948-2.408-4.614-7.143-7.267-12.067-7.267zM846.572 263.681c-19.824 0-38.966-10.814-48.659-29.642-13.749-26.761-3.154-59.734 23.62-73.497 12.97-6.663 27.77-7.892 41.628-3.427 13.885 4.451 25.203 14.063 31.866 27.048 0 0 0 0 0 0.014 6.676 12.943 7.891 27.73 3.441 41.616-4.451 13.872-14.063 25.191-27.047 31.867-7.96 4.082-16.466 6.021-24.848 6.021zM846.395 127.147c-12.847 0-25.599 3.072-37.355 9.107-40.154 20.644-56.046 70.111-35.416 110.279 20.671 40.182 70.108 56.034 110.275 35.417 19.469-10.008 33.873-26.993 40.577-47.828 6.676-20.808 4.847-42.981-5.161-62.437-9.994-19.47-26.965-33.874-47.799-40.564-8.246-2.649-16.698-3.973-25.122-3.973zM791.322 236.373c-2.216 0-4.461 0.44-6.549 1.382l-67.153 30.167c-6.961 3.13-9.66 10.504-6.038 16.508 3.651 5.967 12.246 8.278 19.164 5.185l67.153-30.167c6.961-3.13 9.66-10.516 6.038-16.508-2.543-4.182-7.487-6.566-12.615-6.566zM846.449 700.571c-8.558 0-17.061-2.034-24.882-6.062-12.967-6.676-22.575-17.981-27.025-31.866-4.463-13.885-3.248-28.672 3.426-41.642 13.772-26.774 46.748-37.382 73.473-23.62 12.98 6.676 22.575 17.995 27.039 31.866 4.463 13.885 3.235 28.672-3.426 41.642h-0.014c-6.661 12.97-17.976 22.582-31.843 27.047-5.501 1.775-11.138 2.635-16.747 2.635zM846.667 564.053c-29.741 0-58.472 16.234-72.981 44.468-10.005 19.469-11.82 41.656-5.146 62.477 6.702 20.821 21.088 37.806 40.551 47.8 19.45 9.994 41.616 11.824 62.444 5.134s37.794-21.094 47.785-40.563c10.005-19.456 11.834-41.642 5.146-62.463-6.674-20.835-21.088-37.806-40.551-47.813-11.929-6.13-24.677-9.038-37.248-9.038zM655.58 523.093c-5.056 0-9.919 2.736-12.371 7.497-3.463 6.731-0.734 14.967 6.095 18.387l136.122 68.187c6.816 3.461 15.155 0.725 18.619-6.006 3.463-6.745 0.734-14.967-6.095-18.387l-136.122-68.2c-1.995-1.012-4.142-1.478-6.248-1.478zM81.92 318.293c-7.537 0-13.653 6.211-13.653 13.894v190.666c0 7.669 6.117 13.894 13.653 13.894s13.653-6.224 13.653-13.894v-190.666c0-7.683-6.117-13.894-13.653-13.894zM764.677 700.587c-2.425 0-4.877 0.65-7.099 2.003l-177.701 109.474c-6.368 3.925-8.346 12.275-4.417 18.636 3.929 6.347 12.275 8.323 18.643 4.412l177.701-109.461c6.368-3.925 8.346-12.275 4.417-18.636-2.561-4.141-7.005-6.429-11.543-6.429zM177.404 714.24c-4.539 0-8.983 2.287-11.544 6.428-3.929 6.36-1.951 14.71 4.417 18.634l177.699 109.463c6.382 3.911 14.715 1.935 18.644-4.412 3.929-6.36 1.951-14.71-4.417-18.634l-177.699-109.477c-2.222-1.353-4.675-2.003-7.1-2.003zM846.507 318.293c-7.537 0-13.653 6.211-13.653 13.894v190.666c0 7.669 6.117 13.894 13.653 13.894s13.653-6.224 13.653-13.894v-190.666c0-7.683-6.117-13.894-13.653-13.894zM477.867 331.947h-27.307c-7.537 0-13.653 6.103-13.653 13.653s6.117 13.653 13.653 13.653h27.307c7.537 0 13.653-6.103 13.653-13.653s-6.117-13.653-13.653-13.653zM464.213 591.36c-50.381 0-68.267-44.128-68.267-81.92s17.886-81.92 68.267-81.92c50.381 0 68.267 44.128 68.267 81.92s-17.886 81.92-68.267 81.92zM464.213 400.213c-57.167 0-95.573 43.895-95.573 109.227s38.407 109.227 95.573 109.227c57.167 0 95.573-43.895 95.573-109.227s-38.407-109.227-95.573-109.227zM464.213 181.76c-7.537 0-13.653 6.103-13.653 13.653v150.187c0 7.55 6.117 13.653 13.653 13.653s13.653-6.103 13.653-13.653v-150.187c0-7.55-6.117-13.653-13.653-13.653zM464.213-64c-110.087 0-145.845 44.346-147.319 46.23-1.857 2.403-2.867 5.338-2.867 8.383v68.267c0 7.55 6.117 13.653 13.653 13.653s13.653-6.103 13.653-13.653v-62.696c9.503-8.424 43.882-32.877 122.88-32.877 79.203 0 113.418 24.385 122.88 32.836v62.737c0 7.55 6.117 13.653 13.653 13.653s13.653-6.103 13.653-13.653v-68.267c0-3.045-1.010-5.98-2.867-8.383-1.475-1.884-37.233-46.23-147.319-46.23zM484.040 95.867c9.952-4.584 31.318-9.781 40.628-9.781h101.448c9.789 0 20.423 4.612 25.857 11.209 4.164 5.060 3.358 9.073 3.099 10.393l-21.393 158.138c-7.795 37.994-40.601 66.221-77.844 66.221h-0.928l-66.267-146.589c-5.188-9.686-14.403-15.168-24.464-15.168s-19.277 5.482-24.041 14.311l-66.69 147.446h-7.918c-41.407 0-84.124-31.355-91.428-67.105l-28.246-157.009c-0.601-4.135 0.587-8.108 3.713-11.699 5.256-6.067 15.386-10.148 25.202-10.148h131.756l38.663 3.183c-30.458 19.181-84.615 48.482-127.141 44.238-4.382-0.34-8.642 1.238-11.536 4.503-2.908 3.251-4.068 7.686-3.14 11.944l15.058 68.479c1.625 7.346 8.915 11.957 16.26 10.366 7.372-1.605 12.027-8.856 10.416-16.188l-11.372-51.747c65.68-3.931 139.797-57.215 150.309-64.996zM626.116 58.88h-101.448c-9.829 0-24.41 2.993-36.738 6.706-0.573-0.109-1.16-0.204-1.761-0.258l-78.526-6.407-132.875-0.041c-17.83 0-35.4 7.495-45.857 19.575-8.259 9.509-11.809 21.548-9.993 33.858l28.355 157.743c9.911 48.496 64.028 89.197 118.254 89.197h16.737c5.365 0 10.239-3.129 12.451-8.012l69.885-154.601 69.038 154.601c2.212 4.884 7.072 8.012 12.451 8.012h9.748c50.171 0 94.226-37.382 104.752-88.897l21.406-158.206c2.171-10.747-0.942-22.445-8.915-32.117-10.594-12.841-29.024-21.153-46.963-21.153z" />
<glyph unicode="&#xe907;" glyph-name="icon-fb" horiz-adv-x="455" d="M398.222 448h-113.778v-512h-170.667v512h-113.778v170.667h113.778v113.778c0 83.627-16.612 227.556 170.667 227.556h170.667v-170.667h-113.778c-31.091-0.778-56.111-25.798-56.889-56.889v-113.778h170.667l-56.889-170.667z" />
<glyph unicode="&#xe908;" glyph-name="icon-in" d="M946.435 960h-870.93c-41.704 0-75.505-32.77-75.505-73.217v-875.439c0-40.449 33.813-73.248 75.505-73.248h870.93c41.694 0 75.458 32.82 75.458 73.248v875.439c0 40.435-33.763 73.217-75.458 73.217zM309.809 104.596h-154.401v461.377h154.401v-461.377zM232.624 629.006h-1.038c-51.777 0-85.341 35.41-85.341 79.741 0 45.225 34.55 79.675 87.354 79.675 52.808 0 85.291-34.441 86.318-79.675 0-44.341-33.497-79.741-87.292-79.741zM866.378 104.596h-154.351v246.853c0 62.027-22.364 104.351-78.183 104.351-42.702 0-68.050-28.553-79.181-56.12-4.125-9.846-5.146-23.616-5.146-37.368v-257.706h-154.322c0 0 2.019 418.103 0 461.375h154.346v-65.41c20.49 31.43 57.104 76.265 139.069 76.265 101.592 0 177.767-65.904 177.767-207.684v-264.556zM549.834 495.513c0.758 1.242 1.816 2.737 2.867 4.192v-4.192h-2.867z" />
<glyph unicode="&#xe909;" glyph-name="icon-insta" d="M292.571 960h438.857c161.583 0 292.571-130.989 292.571-292.571v-438.857c0-161.583-130.989-292.571-292.571-292.571h-438.857c-161.583 0-292.571 130.989-292.571 292.571v438.857c0 161.583 130.989 292.571 292.571 292.571zM292.571 862.476c-107.722 0-195.048-87.326-195.048-195.048v-438.857c0-107.722 87.326-195.048 195.048-195.048h438.857c107.722 0 195.048 87.326 195.048 195.048v438.857c0 107.722-87.326 195.048-195.048 195.048h-438.857zM512 716.19c148.118 0 268.19-120.073 268.19-268.19s-120.073-268.19-268.19-268.19c-148.118 0-268.19 120.073-268.19 268.19 5.038 145.98 122.211 263.152 268.19 268.19zM515.901 618.667c-94.807-2.6-171.081-78.788-173.787-173.592-0.013-44.241 17.559-86.674 48.847-117.953s73.726-48.839 117.967-48.813c94.836 2.551 171.152 78.76 173.836 173.592 0 44.246-17.583 86.678-48.879 117.956s-73.738 48.836-117.984 48.81zM780.19 764.952c26.93 0 48.762-21.831 48.762-48.762s-21.831-48.762-48.762-48.762c-26.93 0-48.762 21.831-48.762 48.762s21.831 48.762 48.762 48.762z" />
<glyph unicode="&#xe90a;" glyph-name="icon-kurs" d="M921.6 558.504v299.096c-0.030 28.264-22.936 51.17-51.2 51.2h-17.066c-0.030 28.264-22.936 51.17-51.2 51.2h-290.134c-19.682-0.064-38.364-8.674-51.2-23.592-12.836 14.918-31.518 23.528-51.2 23.592h-290.134c-28.264-0.030-51.17-22.936-51.2-51.2h-17.066c-28.264-0.030-51.17-22.936-51.2-51.2v-631.466c0.030-28.264 22.936-51.17 51.2-51.2h563.2v-85.334c0.098-84.79 68.81-153.502 153.6-153.6h102.4c84.79 0.098 153.502 68.81 153.6 153.6v324.266c-0.114 65.016-41.116 122.93-102.4 144.638zM853.334 874.666h17.066c9.42-0.012 17.054-7.646 17.066-17.066v-291.14c-5.666 0.652-11.364 0.988-17.066 1.006h-17.066v307.2zM170.666 925.866h102.4v-224.416l-37.876 47.342c-3.236 4.050-8.14 6.408-13.324 6.408s-10.088-2.358-13.324-6.408l-37.876-47.342v224.416zM102.4 908.8c0.012 9.42 7.646 17.054 17.066 17.066h17.066v-273.066c-0.004-7.25 4.574-13.708 11.416-16.108 6.84-2.4 14.45-0.214 18.976 5.45l54.942 68.674 54.942-68.674c3.236-4.052 8.14-6.41 13.324-6.408 4.528-0.004 8.87 1.794 12.072 4.994 3.202 3.202 4.998 7.544 4.994 12.072v273.066h102.4c18.844-0.018 34.114-15.29 34.134-34.134v-556.68c-10.688 6.814-23.084 10.47-35.758 10.548h-305.574v563.2zM102.4 311.466h305.576c18.782-0.658 34.038-15.386 35.356-34.134h-340.932v34.134zM614.4 209.066h-563.2c-9.42 0.012-17.054 7.646-17.066 17.066v631.468c0.012 9.42 7.646 17.054 17.066 17.066h17.066v-614.4c0-9.426 7.64-17.066 17.066-17.066h529.068v-34.134zM614.4 277.334h-136.132c1.342 18.768 16.634 33.496 35.44 34.134h100.692v-34.134zM614.4 345.6h-100.692c-12.704-0.076-25.13-3.742-35.842-10.572v556.706c0.018 18.844 15.29 34.114 34.134 34.134h290.134c9.42-0.012 17.054-7.646 17.066-17.066v-341.334h-51.2c-84.79-0.098-153.502-68.81-153.6-153.6v-68.268zM802.134 533.334v-221.866h-153.6v102.4c0.074 65.948 53.518 119.392 119.466 119.466h34.134zM989.866 89.6c-0.074-65.948-53.518-119.392-119.466-119.466h-102.4c-65.948 0.074-119.392 53.518-119.466 119.466v187.734h341.334v-187.734h-0.002zM989.866 311.466h-153.6v221.868h34.134c65.948-0.074 119.392-53.518 119.466-119.466v-102.402z" />
<glyph unicode="&#xe90b;" glyph-name="location" horiz-adv-x="876" d="M405.858 838.617l0.549 37.418h-4.789c-173.968 0-316.205-139.643-318.849-314.21v-4.789c0-56.825 15.217-112.603 44.003-161.595l234.684-398.075c6.586-11.225 18.659-18.21 31.68-18.41s25.294 6.486 32.229 17.512l246.359 390.841c33.127 52.634 48.992 111.505 48.942 169.478 0.050 105.967-52.934 209.789-149.322 270.306-49.391 31.132-106.516 47.995-164.888 48.893l-0.599-37.368-0.549-37.418c44.702-0.698 88.356-13.57 126.223-37.418 73.888-46.398 114.249-125.674 114.299-206.945 0-44.452-12.024-89.204-37.468-129.665l-213.581-338.905-203.503 345.142c-22.101 37.518-33.726 80.174-33.726 123.678l0.050 3.642c1.946 133.606 110.906 240.522 244.014 240.522h3.692l0.549 37.368zM531.831 555.189l-37.418 0.549c-0.698-50.689-42.157-91.399-92.746-91.399h-1.347c-50.788 0.748-91.499 42.157-91.449 92.746v1.397c0.748 50.788 42.157 91.499 92.746 91.449h1.547c50.589-0.499 91.349-41.808 91.299-92.247v-1.297l37.418-0.1-37.368 1.746-0.050-1.048-0.050-1.247 37.418-0.549 37.368-1.796 0.050 1.048 0.050 1.646v1.596c0 91.449-73.638 166.085-165.287 167.083h-2.395c-91.449 0-166.185-73.439-167.582-165.187v0.249-2.744c0-91.449 73.439-166.185 165.187-167.582h2.445c91.499 0 166.235 73.439 167.582 165.187l-37.418 0.499z" />
<glyph unicode="&#xe90c;" glyph-name="lupa-icon" d="M404.211 906.105v-53.895c82.028 0 155.81-33.091 209.597-86.824 53.733-53.787 86.771-127.569 86.824-209.597-0.054-82.028-33.091-155.81-86.824-209.597-53.787-53.733-127.569-86.771-209.597-86.824-82.028 0.054-155.81 33.091-209.597 86.824-53.733 53.787-86.824 127.569-86.824 209.597s33.091 155.81 86.824 209.597c53.787 53.733 127.569 86.824 209.597 86.824v107.789c-223.286 0-404.211-180.925-404.211-404.211s180.925-404.157 404.211-404.211c223.286 0.054 404.157 180.925 404.211 404.211-0.054 223.286-180.925 404.211-404.211 404.211v-53.895zM610.466 273.435l322.722-293.888 72.542 79.656-322.722 293.888z" />
<glyph unicode="&#xe90d;" glyph-name="photo" d="M912 768.64v0c-7.616 0-15.2-0.768-22.496-2.24-0.384-0.096-0.672-0.288-1.056-0.352-20.864-4.448-40-14.56-54.944-29.536l-193.504-181.888v86.016c0 52.928-43.072 96-96 96h-96c-24.512 0-46.624-9.504-63.584-24.672l-143.296 143.296c-0.736 0.736-1.76 1.024-2.56 1.696 1.504 5.568 2.56 11.232 2.56 17.056 0 17.088-6.656 33.184-18.752 45.248l-22.656 22.656c-24.224 24.128-66.304 24.096-90.464-0.032l-90.464-90.528c-12.096-12.032-18.784-28.064-18.784-45.184-0.032-17.088 6.624-33.216 18.752-45.376l22.592-22.56c12.096-12.096 28.192-18.784 45.28-18.784 5.888 0 11.52 1.056 17.024 2.592 0.672-0.8 0.96-1.824 1.728-2.592l110.88-110.848h-120.256c-52.928 0-96-43.072-96-96v-448c0-52.896 43.072-96 96-96h448c52.928 0 96 43.104 96 96v86.016l192.928-181.376c1.696-1.696 3.616-2.88 5.44-4.512 2.816-2.464 5.664-4.864 8.672-7.168 2.688-1.92 5.504-3.52 8.32-5.216 2.88-1.728 5.856-3.328 8.832-4.672 2.976-1.408 5.856-2.688 8.832-3.808 3.488-1.344 7.328-2.368 11.008-3.328 2.624-0.672 5.152-1.504 7.808-1.984 6.496-1.184 13.056-1.952 19.84-1.952 0.064 0 0.128-0.064 0.192-0.064h0.128c7.008 0 13.824 0.8 20.576 2.048 2.24 0.448 4.512 1.12 6.688 1.696 4.32 1.088 8.608 2.336 12.672 3.936 2.464 0.928 4.8 1.984 7.264 3.072 3.808 1.888 7.456 3.872 11.072 6.016 2.048 1.28 4.256 2.464 6.24 3.872 4.384 3.168 8.576 6.592 12.448 10.272 0.864 0.736 1.824 1.376 2.56 2.176 4.672 4.672 8.8 9.824 12.672 15.328 0.96 1.44 1.792 2.976 2.656 4.448 2.656 4.16 5.056 8.544 7.136 13.088 0.928 1.984 1.792 4.128 2.56 6.176 0.768 2.176 1.952 4.288 2.56 6.496 3.008 5.216 4.896 11.104 4.896 17.472v624c0 61.728-50.24 112-112 112zM86.624 751.456v32h0.032l-0.032-32zM86.624 783.488l-22.624 22.592 90.496 90.56 22.624-22.656-90.496-90.496zM154.496 760.864l45.248 45.248 153.472-153.472c-0.512-3.968-1.216-7.904-1.216-12 0-17.664-14.336-32-32-32h-13.248l-152.256 152.224zM576 64.64c0-17.664-14.336-32-32-32h-448c-17.664 0-32 14.336-32 32v448c0 17.664 14.336 32 32 32h224c52.928 0 96 43.104 96 96 0 17.632 14.336 32 32 32h96c17.664 0 32-14.368 32-32v-576zM800 88.032l-160 150.4v228.384l160 150.4v-529.184zM959.968 48.64c0-3.328-0.352-6.496-0.96-9.632-0.992-5.056-3.040-9.696-5.504-14.016-0.384-0.672-0.672-1.44-1.056-1.984-2.56-3.936-5.696-7.424-9.184-10.496-0.672-0.576-1.312-1.12-1.984-1.696-3.68-2.848-7.776-5.216-12.192-6.912-0.672-0.352-1.44-0.48-2.048-0.672-4.672-1.6-9.696-2.624-14.912-2.624h-0.128c-5.248 0-10.24 1.024-15.072 2.624-0.672 0.192-1.248 0.384-1.888 0.64-4.512 1.696-8.64 4.096-12.352 7.008-0.672 0.576-1.344 1.088-1.984 1.696-7.808 6.752-13.632 15.808-15.744 26.496-0.256 1.184-0.64 2.4-0.992 3.552v614.016c0 23.072 16.32 42.272 38.016 46.912 0.128 0.032 0.256 0.128 0.416 0.16 3.136 0.64 6.272 0.928 9.664 0.928 26.368-0.032 47.936-21.568 47.936-48.032l-0.032-607.968zM384 320.64c-24.672 0-46.976-9.632-64-24.896-17.024 15.328-39.328 24.896-64 24.896-52.928 0-96-43.072-96-96 0-52.864 43.072-96 96-96 24.672 0 46.976 9.664 64 24.96 17.024-15.328 39.328-24.96 64-24.96 52.928 0 96 43.136 96 96 0 52.928-43.072 96-96 96zM256 192.64c-17.664 0-32 14.336-32 32 0 17.696 14.336 32 32 32s32-14.304 32-32c0-17.664-14.336-32-32-32zM384 192.64c-17.664 0-32 14.336-32 32 0 17.696 14.336 32 32 32s32-14.304 32-32c0-17.664-14.336-32-32-32z" />
<glyph unicode="&#xe90e;" glyph-name="screen" d="M736 0h-64c-35.328 0-64 28.672-64 64v96h-192v-96c0-35.328-28.672-64-64-64h-64c-17.696 0-32-14.336-32-32 0-17.696 14.304-32 32-32h448c17.696 0 32 14.304 32 32 0 17.664-14.304 32-32 32zM968 960h-912c-30.912 0-56-26.88-56-60v-616c0-33.12 25.088-60 56-60h912c30.912 0 56 26.88 56 60v616c0 33.12-25.088 60-56 60zM960 288h-896v608h896v-608z" />
<glyph unicode="&#xe90f;" glyph-name="star" horiz-adv-x="1092" d="M535.095 141.834l330.689-199.653-87.488 376.539 291.894 253.223-384.787 33.052-150.308 355.005-150.308-355.005-384.787-33.052 291.894-253.223-87.488-376.539z" />
<glyph unicode="&#xe910;" glyph-name="wallet" horiz-adv-x="889" d="M851.236 783.905l-311.218 169.022c-29.523 16.039-70.116 3.701-86.108-25.908l-182.056-339.277h-221.42c-28.293 0-50.435-22.207-50.435-50.583v-549.012c0-28.376 22.142-50.583 50.435-50.583h707.313c28.293 0 50.435 22.207 50.435 50.583v128.308h20.912c11.071 0 19.682 8.636 19.682 19.74v146.814c0 11.104-8.611 19.74-19.682 19.74h-20.912v144.347c0 23.441-17.222 44.414-39.364 49.349l108.25 201.099c15.991 30.843 4.92 69.089-25.832 86.361zM629.816 859.163l-194.357-361.484h-55.355l207.889 383.692 41.824-22.207zM489.584 908.513c6.151 11.104 20.912 16.039 31.983 9.87l30.753-17.272-216.499-403.431h-67.656l221.42 410.834zM38.133 538.392c0 3.701 4.92 9.87 11.071 9.87h200.508l-27.062-49.349h-173.446c-3.69 0-7.381 0-11.071-1.234v40.713zM767.589-11.854c0-6.169-4.92-11.104-11.071-11.104h-707.313c-6.151 0-11.071 4.935-11.071 11.104v458.949c0 6.169 4.92 11.104 11.071 11.104h706.083c6.151 0 11.071-4.935 11.071-11.104v-144.347h-75.037c-33.213 0-59.045-27.142-59.045-59.219v-67.855c0-33.311 27.062-59.219 59.045-59.219h76.267v-128.308zM806.952 263.269h1.23v-107.335h-116.86c-11.071 0-19.682 8.636-19.682 19.74v67.855c0 11.104 8.611 19.74 19.682 19.74h115.63zM841.395 717.284l-118.091-219.605h-243.562l184.517 341.745 167.295-91.296c12.301-4.935 15.991-19.74 9.841-30.843zM769.314 716.47l-9.841 4.935c-24.602 13.571-57.815 3.701-71.346-20.973l-12.301-23.441c-6.151-12.337-8.611-27.142-3.69-40.713 3.69-13.571 13.531-24.675 25.832-30.843l9.841-4.935c7.381-3.701 15.991-6.169 24.602-6.169 19.682 0 36.903 11.104 46.744 27.142l12.301 23.441c12.301 25.908 2.46 57.986-22.142 71.557zM755.783 663.419l-12.301-23.441c-3.69-6.169-12.301-8.636-18.452-4.935l-9.841 6.169c-2.46 1.234-4.92 4.935-6.151 7.402-1.23 3.701-1.23 7.402 1.23 9.87l12.301 23.441c2.46 3.701 7.381 7.402 12.301 7.402 2.46 0 3.69 0 6.151-1.234l9.841-4.935c4.92-4.935 7.381-12.337 4.92-19.74z" />
<glyph unicode="&#xe911;" glyph-name="icon_termin" horiz-adv-x="1076" d="M959.387 869.718h-122.105v67.002c0 12.863-10.428 23.291-23.291 23.291s-23.291-10.428-23.291-23.291v0-67.002h-505.631v67.002c0 12.863-10.428 23.291-23.291 23.291s-23.291-10.428-23.291-23.291v0-67.002h-122.062c-64.27-0.073-116.351-52.154-116.424-116.417v-700.79c0.073-64.27 52.154-116.351 116.417-116.424h842.97c64.27 0.073 116.351 52.154 116.424 116.417v700.79c-0.073 64.27-52.154 116.351-116.417 116.424h-0.007zM116.424 823.135h122.105v-121.158c0-12.863 10.428-23.291 23.291-23.291s23.291 10.428 23.291 23.291v0 121.158h505.631v-121.158c0-12.863 10.428-23.291 23.291-23.291s23.291 10.428 23.291 23.291v0 121.158h122.105c38.57-0.037 69.826-31.294 69.863-69.86v-198.146h-982.71v198.164c0.049 38.553 31.289 69.793 69.837 69.842h0.005zM959.387-17.439h-842.963c-38.583 0.049-69.842 31.338-69.842 69.928 0 0.008 0 0.015 0 0.023v-0.001 456.144h982.646v-456.144c0-0.006 0-0.014 0-0.022 0-38.59-31.259-69.879-69.837-69.928h-0.005zM699.234 398.254l-209.202-200.101-106.118 106.118c-4.555 4.776-10.967 7.746-18.074 7.746-13.784 0-24.959-11.174-24.959-24.959 0-7.106 2.97-13.519 7.736-18.064l0.010-0.009 123.374-123.374c4.517-4.516 10.756-7.309 17.648-7.309 6.697 0 12.778 2.638 17.261 6.931l-0.009-0.009 226.824 216.905c4.31 4.479 6.965 10.577 6.965 17.296 0 13.784-11.174 24.959-24.959 24.959-6.306 0-12.066-2.339-16.46-6.196l0.028 0.024z" />
<glyph unicode="&#xe912;" glyph-name="check" horiz-adv-x="1407" d="M1366.054 719.589l-742.409-742.319c-25.485-25.476-60.688-41.233-99.571-41.233s-74.085 15.757-99.571 41.233l-383.324 383.234c-25.502 25.49-41.275 60.711-41.275 99.616 0 77.787 63.059 140.846 140.846 140.846 38.882 0 74.085-15.756 99.571-41.231l283.663-283.663 642.748 642.748c25.49 25.502 60.711 41.275 99.616 41.275 77.787 0 140.846-63.059 140.846-140.846 0-38.882-15.756-74.085-41.231-99.571v0z" />
<glyph unicode="&#xe913;" glyph-name="facebook" d="M0 960v-1024h545.361v395.533h-133.336v161.684h133.336v135.437c0 98.612 79.941 178.553 178.553 178.553v0h139.372v-145.192h-99.705c-31.343 0-56.751-25.408-56.751-56.751v0-112.263h153.977l-21.288-161.684h-132.689v-395.318h317.171v1024z" />
<glyph unicode="&#xe914;" glyph-name="arrow-left" horiz-adv-x="597" d="M580.267 29.099l-446.891 418.901 446.891 418.901c10.477 9.807 17.006 23.721 17.006 39.159 0 14.297-5.599 27.287-14.724 36.896l0.022-0.023c-9.965 10.434-23.985 16.921-39.521 16.921-14.427 0-27.547-5.594-37.31-14.731l0.031 0.028-488.704-457.984c-10.483-9.807-17.015-23.725-17.015-39.168s6.532-29.361 16.985-39.14l0.030-0.028 488.704-458.155c9.732-9.109 22.852-14.702 37.279-14.702 15.536 0 29.556 6.487 39.501 16.9l0.020 0.021c9.133 9.604 14.752 22.626 14.752 36.959 0 15.475-6.548 29.42-17.025 39.215l-0.031 0.028z" />
<glyph unicode="&#xe915;" glyph-name="arrow-right" horiz-adv-x="597" d="M17.067 866.901l446.891-418.901-446.891-418.901c-10.477-9.807-17.006-23.721-17.006-39.159 0-14.297 5.599-27.287 14.724-36.896l-0.022 0.023c9.965-10.434 23.985-16.921 39.521-16.921 14.427 0 27.547 5.594 37.31 14.731l-0.031-0.028 488.704 457.984c10.483 9.807 17.015 23.725 17.015 39.168s-6.532 29.361-16.985 39.14l-0.030 0.028-488.704 458.155c-9.732 9.109-22.852 14.702-37.279 14.702-15.536 0-29.556-6.487-39.501-16.9l-0.020-0.021c-9.133-9.604-14.752-22.626-14.752-36.959 0-15.475 6.548-29.42 17.025-39.215l0.031-0.028z" />
<glyph unicode="&#xe916;" glyph-name="icon-info" d="M149.974 810.026c-92.661-92.66-149.974-220.67-149.974-362.066 0-282.789 229.246-512.035 512.035-512.035s512.035 229.246 512.035 512.035c0 141.395-57.312 269.405-149.973 362.065v0c-92.66 92.659-220.668 149.969-362.061 149.969s-269.401-57.311-362.061-149.97v0zM532.647 745.206c43.58 0 78.908-35.328 78.908-78.908s-35.328-78.908-78.908-78.908v0c-43.694 0.353-78.979 35.856-78.979 79.6 0 0.147 0 0.294 0.001 0.442v-0.023c0.353 43.043 35.327 77.8 78.42 77.8 0.196 0 0.392-0.001 0.588-0.002h-0.030zM643.687 216.724c-2.438-7.131-6.132-13.262-10.862-18.43l0.035 0.039c-25.703-28.402-62.619-46.245-103.708-46.498h-0.046c-2.796-0.083-6.086-0.13-9.386-0.13-16.887 0-33.485 1.233-49.711 3.613l1.842-0.222c-37.966 8.272-65.979 41.597-65.979 81.463 0 1.005 0.018 2.006 0.053 3.002l-0.004-0.144 12.978 84.321c8.675 48.58 17.281 98.34 25.956 146.99 0 3.262 1.11 6.454 1.11 9.716 0 20.82-6.454 27.76-26.997 30.258-9.951 1.046-18.786 2.561-27.422 4.594l1.466-0.291c-8.089 2.307-13.913 9.633-13.913 18.318 0 0.392 0.012 0.781 0.035 1.167l-0.003-0.053c1.11 8.675 6.454 13.88 17.281 16.24 4.428 0.702 9.534 1.104 14.733 1.104 1.238 0 2.47-0.023 3.696-0.068l-0.177 0.005h149.21c18.391 0 29.148-8.675 29.148-26.997-0.22-16.201-2.18-31.829-5.703-46.856l0.29 1.468c-9.716-56.214-20.82-111.040-30.258-167.532-3.262-18.391-7.565-36.713-9.716-55.104-0.237-2.258-0.372-4.878-0.372-7.53 0-6.921 0.921-13.626 2.647-20.001l-0.123 0.535c1.945-10.006 10.638-17.456 21.070-17.456 0.964 0 1.913 0.064 2.843 0.187l-0.109-0.012c10.861 1.523 20.684 4.565 29.745 8.935l-0.597-0.26c5.885 3.5 12.974 7.122 20.289 10.322l1.295 0.505c13.047 4.233 22.763-3.331 19.363-15.199z" />
<glyph unicode="&#xe917;" glyph-name="pin" horiz-adv-x="768" d="M384-64c-0.002 0-0.004 0-0.006 0-10.087 0-19.179 4.258-25.577 11.075l-0.017 0.019c-14.763 15.787-358.4 389.461-358.4 642.048 3.998 205.693 171.685 370.907 377.96 370.907 2.124 0 4.244-0.018 6.36-0.052l-0.319 0.004c1.797 0.031 3.916 0.048 6.040 0.048 206.275 0 373.962-165.214 377.954-370.533l0.006-0.373c0-252.587-343.637-626.261-358.4-642.048-6.433-6.812-15.517-11.062-25.594-11.093h-0.006zM384 775.765c-0.898 0.015-1.958 0.024-3.020 0.024-103.797 0-188.176-83.142-190.172-186.461l-0.003-0.187c2.046-103.469 86.406-186.563 190.173-186.563 1.062 0 2.123 0.009 3.181 0.026l-0.159-0.002c0.899-0.015 1.959-0.024 3.022-0.024 103.767 0 188.127 83.094 190.17 186.372l0.003 0.191c-1.999 103.506-86.377 186.648-190.175 186.648-1.062 0-2.122-0.009-3.179-0.026l0.159 0.002z" />
<glyph unicode="&#xe918;" glyph-name="quote" horiz-adv-x="1434" d="M0 345.452h307.186l-204.955-409.452h307.186l204.99 409.452v614.548h-614.407zM819.186 960v-614.548h307.186l-204.814-409.593h307.186l204.99 409.593v614.548z" />
<glyph unicode="&#xe919;" glyph-name="eye" horiz-adv-x="1918" d="M960.397 956.611c-533.634 0-959.099-512-959.099-512s432.676-512 959.099-512 959.099 512 959.099 512-425.465 512-959.099 512zM960.397 76.836c-237.972 0-454.31 122.592-591.324 230.761-72.113 50.479-129.803 100.958-165.859 137.014 137.014 137.014 432.676 367.775 757.183 367.775 237.972 0 454.31-122.592 591.324-230.761 64.901-50.479 122.592-100.958 165.859-137.014-137.014-129.803-432.676-367.775-757.183-367.775zM960.397 740.273c-158.648 0-288.451-129.803-288.451-288.451s129.803-288.451 288.451-288.451c158.648 0 288.451 129.803 288.451 288.451s-129.803 288.451-288.451 288.451zM960.397 307.597c-79.324 0-144.225 64.901-144.225 144.225s64.901 144.225 144.225 144.225c79.324 0 144.225-64.901 144.225-144.225s-64.901-144.225-144.225-144.225z" />
<glyph unicode="&#xe91a;" glyph-name="manage" d="M378.234 909.261l-18.45-78.414c-41.514-13.838-78.414-36.901-110.703-64.577l-73.802 27.676c-27.676 9.225-59.964 0-78.414-27.676l-64.577-115.315c-18.45-27.676-9.225-64.577 13.838-83.027l59.964-50.739c-4.613-23.063-4.613-46.126-4.613-64.577 0-23.063 0-41.514 4.613-64.577v0l-59.964-55.351c-23.063-18.45-27.676-55.351-13.838-83.027l64.577-110.703c13.838-27.676 46.126-41.514 78.414-27.676l73.802 23.063c32.288-27.676 73.802-50.739 115.315-64.577l13.838-78.414c4.613-32.288 32.288-50.739 64.577-50.739h129.153c32.288 0 59.964 23.063 64.577 50.739l13.838 73.802c41.514 13.838 78.414 36.901 115.315 64.577l73.802-23.063c27.676-9.225 59.964 0 78.414 27.676l64.577 110.703c13.838 27.676 9.225 59.964-13.838 83.027l-59.964 50.739c4.613 23.063 4.613 46.126 4.613 64.577 0 23.063 0 41.514-4.613 64.577v0l59.964 59.964c23.063 18.45 27.676 55.351 13.838 83.027l-64.577 110.703c-13.838 27.676-46.126 41.514-78.414 27.676l-73.802-23.063c-32.288 27.676-73.802 50.739-115.315 64.577l-13.838 73.802c-9.225 36.901-32.288 55.351-64.577 55.351h-129.153c-32.288 0-59.964-18.45-64.577-50.739zM470.486 858.523h69.189l18.45-101.477 55.351-18.45c32.288-13.838 59.964-27.676 87.64-50.739l46.126-36.901 96.865 32.288 32.288-59.964-78.414-69.189 9.225-55.351c4.613-18.45 4.613-36.901 4.613-50.739s0-32.288-4.613-50.739l-9.225-55.351 78.414-69.189-36.901-59.964-96.865 32.288-46.126-36.901c-23.063-18.45-55.351-36.901-87.64-50.739v0l-55.351-18.45-18.45-101.477h-69.189l-18.45 101.477-55.351 18.45c-32.288 13.838-59.964 27.676-87.64 50.739l-46.126 36.901-96.865-32.288-36.901 59.964 78.414 69.189-9.225 55.351c-4.613 18.45-4.613 36.901-4.613 50.739s0 32.288 4.613 50.739l9.225 55.351-69.189 69.189 36.901 59.964 96.865-32.288 46.126 36.901c23.063 18.45 55.351 36.901 87.64 50.739l55.351 18.45 13.838 101.477zM507.387 655.568c-110.703 0-202.955-92.252-202.955-202.955s92.252-202.955 202.955-202.955 202.955 92.252 202.955 202.955-92.252 202.955-202.955 202.955zM507.387 554.090c55.351 0 101.477-46.126 101.477-101.477s-46.126-101.477-101.477-101.477-101.477 46.126-101.477 101.477 41.514 101.477 101.477 101.477z" />
<glyph unicode="&#xe91b;" glyph-name="address" horiz-adv-x="1365" d="M1194.667 823.467h-1160.533c-20.48 0-34.133-13.653-34.133-34.133v-819.2c0-20.48 13.653-34.133 34.133-34.133h1160.533c20.48 0 34.133 13.653 34.133 34.133v819.2c0 20.48-13.653 34.133-34.133 34.133zM1160.533 4.267h-1092.267v750.933h1092.267v-750.933zM1331.2 960h-1160.533c-20.48 0-34.133-13.653-34.133-34.133s13.653-34.133 34.133-34.133h1126.4v-785.067c0-20.48 13.653-34.133 34.133-34.133s34.133 13.653 34.133 34.133v819.2c0 20.48-13.653 34.133-34.133 34.133zM546.133 106.667h307.2c20.48 0 34.133 13.653 34.133 34.133s-13.653 34.133-34.133 34.133h-307.2c-20.48 0-34.133-13.653-34.133-34.133s13.653-34.133 34.133-34.133zM546.133 311.467h512c20.48 0 34.133 13.653 34.133 34.133s-13.653 34.133-34.133 34.133h-512c-20.48 0-34.133-13.653-34.133-34.133s13.653-34.133 34.133-34.133zM170.667 413.867h170.667c20.48 0 34.133 13.653 34.133 34.133v204.8c0 20.48-13.653 34.133-34.133 34.133h-170.667c-20.48 0-34.133-13.653-34.133-34.133v-204.8c0-20.48 13.653-34.133 34.133-34.133zM204.8 618.667h102.4v-136.533h-102.4v136.533zM546.133 209.067h512c20.48 0 34.133 13.653 34.133 34.133s-13.653 34.133-34.133 34.133h-512c-20.48 0-34.133-13.653-34.133-34.133s13.653-34.133 34.133-34.133z" />
<glyph unicode="&#xe91c;" glyph-name="phone" d="M668.444 231.822c0 0-2.844 0 0 0-196.267 25.6-347.022 179.2-375.467 369.778 0 0 0 0 0 2.844-2.844 42.667 79.644 139.378 125.156 153.6 42.667 14.222 71.111 2.844 91.022-31.289l31.289-56.889c8.533-14.222 17.067-45.511-22.756-71.111-17.067-14.222-22.756-17.067-22.756-19.911v0c0 0 0-2.844 5.689-14.222 34.133-51.2 76.8-93.867 130.844-130.844 8.533-5.689 11.378-5.689 11.378-5.689v0c0 0 5.689 2.844 19.911 22.756 28.444 39.822 56.889 31.289 71.111 22.756l56.889-31.289c22.756-11.378 48.356-36.978 31.289-91.022-17.067-36.978-110.933-119.467-153.6-119.467zM349.867 607.289c25.6-164.978 153.6-292.978 318.578-318.578 22.756 5.689 88.178 62.578 96.711 85.333 5.689 17.067 2.844 17.067-2.844 19.911l-54.044 28.444c0 0-2.844-2.844-2.844-2.844-25.6-34.133-51.2-62.578-108.089-34.133-59.733 39.822-110.933 88.178-150.756 147.911-31.289 56.889-2.844 82.489 31.289 108.089 2.844 0 2.844 2.844 2.844 2.844l-28.444 51.2c-2.844 8.533-5.689 8.533-22.756 5.689s-73.956-71.111-79.644-93.867zM910.222-35.556c-5.689 0-11.378 0-14.222 2.844l-179.2 105.244c-230.4-79.644-483.556 36.978-574.578 267.378-91.022 233.244 25.6 497.778 261.689 588.8 51.2 19.911 108.089 31.289 164.978 31.289 0 0 0 0 0 0 122.311 0 236.089-48.356 321.422-133.689s133.689-199.111 133.689-321.422c0-122.311-48.356-241.778-136.533-327.111l51.2-179.2c2.844-11.378 0-22.756-11.378-31.289-5.689 0-11.378-2.844-17.067-2.844zM745.244 126.578l119.467-71.111-36.978 125.156c-2.844 11.378 0 22.756 8.533 28.444 82.489 76.8 130.844 182.044 130.844 295.822 0 105.244-42.667 204.8-116.622 281.6-73.956 73.956-173.511 116.622-281.6 116.622 0 0 0 0 0 0s0 0 0 0c-48.356 0-96.711-8.533-142.222-25.6-204.8-79.644-307.2-310.044-227.556-514.844s310.044-307.2 514.844-227.556c8.533 2.844 22.756 0 31.289-8.533zM102.4-64c-5.689 0-11.378 2.844-17.067 5.689-8.533 5.689-14.222 19.911-11.378 31.289l42.667 153.6c-99.556 99.556-142.222 244.622-105.244 381.156 2.844 14.222 19.911 25.6 34.133 19.911 14.222-2.844 25.6-19.911 19.911-34.133-31.289-122.311 8.533-253.156 102.4-338.489 8.533-8.533 11.378-19.911 8.533-28.444l-28.444-99.556 102.4 59.733c14.222 8.533 31.289 2.844 39.822-8.533 8.533-14.222 2.844-31.289-8.533-39.822l-164.978-96.711c-5.689-5.689-8.533-5.689-14.222-5.689z" />
<glyph unicode="&#xe91d;" glyph-name="alarm-bell1" horiz-adv-x="853" d="M737.272 295.164v205.813c0 142.797-88.893 264.328-211.943 307.469v52.734c0.008 54.492-44.259 98.82-98.659 98.82-54.407 0-98.666-44.328-98.666-98.82v-52.734c-123.050-43.141-211.943-164.664-211.943-307.469v-205.813c-33.697-26.195-116.061-100.945-116.061-205.867 0-17.078 13.83-30.93 30.882-30.93h223.409c4.719-32.32 23.027-61.844 52.808-84.422 32.301-24.469 74.766-37.945 119.571-37.945s87.27 13.477 119.564 37.945c29.789 22.578 48.097 52.094 52.808 84.422h223.409c17.059 0 30.882 13.852 30.882 30.93 0 104.93-82.356 179.672-116.061 205.867v0zM391.493 861.024c0 20.764 16.464 37.659 36.706 37.659 20.235 0 36.699-16.895 36.699-37.659v-38.988c-12.041 1.537-24.285 2.349-36.706 2.349s-24.657-0.812-36.699-2.341v38.98zM426.663 763.784c137.456 0 249.275-117.484 249.275-261.895v-191.854h-498.542v191.854c0 144.411 111.819 261.895 249.267 261.895zM426.667-2.683c-52.107 0-97.209 26.715-108.578 61.317h217.157c-11.377-34.602-56.471-61.317-108.578-61.317v0zM64.229 119.952c14.284 62.467 68.134 109.101 89.779 125.701h545.348c21.715-16.537 75.542-62.924 89.748-125.701h-724.875z" />
<glyph unicode="&#xe91e;" glyph-name="wallet1" horiz-adv-x="889" d="M851.236 783.905l-311.218 169.022c-29.523 16.039-70.116 3.701-86.108-25.908l-182.056-339.277h-221.42c-28.293 0-50.435-22.207-50.435-50.583v-549.012c0-28.376 22.142-50.583 50.435-50.583h707.313c28.293 0 50.435 22.207 50.435 50.583v128.308h20.912c11.071 0 19.682 8.636 19.682 19.74v146.814c0 11.104-8.611 19.74-19.682 19.74h-20.912v144.347c0 23.441-17.222 44.414-39.364 49.349l108.25 201.099c15.991 30.843 4.92 69.089-25.832 86.361zM629.816 859.163l-194.357-361.484h-55.355l207.889 383.692 41.824-22.207zM489.584 908.513c6.151 11.104 20.912 16.039 31.983 9.87l30.753-17.272-216.499-403.431h-67.656l221.42 410.834zM38.133 538.392c0 3.701 4.92 9.87 11.071 9.87h200.508l-27.062-49.349h-173.446c-3.69 0-7.381 0-11.071-1.234v40.713zM767.589-11.854c0-6.169-4.92-11.104-11.071-11.104h-707.313c-6.151 0-11.071 4.935-11.071 11.104v458.949c0 6.169 4.92 11.104 11.071 11.104h706.083c6.151 0 11.071-4.935 11.071-11.104v-144.347h-75.037c-33.213 0-59.045-27.142-59.045-59.219v-67.855c0-33.311 27.062-59.219 59.045-59.219h76.267v-128.308zM806.952 263.269h1.23v-107.335h-116.86c-11.071 0-19.682 8.636-19.682 19.74v67.855c0 11.104 8.611 19.74 19.682 19.74h115.63zM841.395 717.284l-118.091-219.605h-243.562l184.517 341.745 167.295-91.296c12.301-4.935 15.991-19.74 9.841-30.843zM769.314 716.47l-9.841 4.935c-24.602 13.571-57.815 3.701-71.346-20.973l-12.301-23.441c-6.151-12.337-8.611-27.142-3.69-40.713 3.69-13.571 13.531-24.675 25.832-30.843l9.841-4.935c7.381-3.701 15.991-6.169 24.602-6.169 19.682 0 36.903 11.104 46.744 27.142l12.301 23.441c12.301 25.908 2.46 57.986-22.142 71.557zM755.783 663.419l-12.301-23.441c-3.69-6.169-12.301-8.636-18.452-4.935l-9.841 6.169c-2.46 1.234-4.92 4.935-6.151 7.402-1.23 3.701-1.23 7.402 1.23 9.87l12.301 23.441c2.46 3.701 7.381 7.402 12.301 7.402 2.46 0 3.69 0 6.151-1.234l9.841-4.935c4.92-4.935 7.381-12.337 4.92-19.74z" />
<glyph unicode="&#xe91f;" glyph-name="star1" horiz-adv-x="1092" d="M535.095 141.834l330.689-199.653-87.488 376.539 291.894 253.223-384.787 33.052-150.308 355.005-150.308-355.005-384.787-33.052 291.894-253.223-87.488-376.539z" />
<glyph unicode="&#xe920;" glyph-name="screen1" d="M736 0h-64c-35.328 0-64 28.672-64 64v96h-192v-96c0-35.328-28.672-64-64-64h-64c-17.696 0-32-14.336-32-32 0-17.696 14.304-32 32-32h448c17.696 0 32 14.304 32 32 0 17.664-14.304 32-32 32zM968 960h-912c-30.912 0-56-26.88-56-60v-616c0-33.12 25.088-60 56-60h912c30.912 0 56 26.88 56 60v616c0 33.12-25.088 60-56 60zM960 288h-896v608h896v-608z" />
<glyph unicode="&#xe921;" glyph-name="photo1" d="M912 768.64v0c-7.616 0-15.2-0.768-22.496-2.24-0.384-0.096-0.672-0.288-1.056-0.352-20.864-4.448-40-14.56-54.944-29.536l-193.504-181.888v86.016c0 52.928-43.072 96-96 96h-96c-24.512 0-46.624-9.504-63.584-24.672l-143.296 143.296c-0.736 0.736-1.76 1.024-2.56 1.696 1.504 5.568 2.56 11.232 2.56 17.056 0 17.088-6.656 33.184-18.752 45.248l-22.656 22.656c-24.224 24.128-66.304 24.096-90.464-0.032l-90.464-90.528c-12.096-12.032-18.784-28.064-18.784-45.184-0.032-17.088 6.624-33.216 18.752-45.376l22.592-22.56c12.096-12.096 28.192-18.784 45.28-18.784 5.888 0 11.52 1.056 17.024 2.592 0.672-0.8 0.96-1.824 1.728-2.592l110.88-110.848h-120.256c-52.928 0-96-43.072-96-96v-448c0-52.896 43.072-96 96-96h448c52.928 0 96 43.104 96 96v86.016l192.928-181.376c1.696-1.696 3.616-2.88 5.44-4.512 2.816-2.464 5.664-4.864 8.672-7.168 2.688-1.92 5.504-3.52 8.32-5.216 2.88-1.728 5.856-3.328 8.832-4.672 2.976-1.408 5.856-2.688 8.832-3.808 3.488-1.344 7.328-2.368 11.008-3.328 2.624-0.672 5.152-1.504 7.808-1.984 6.496-1.184 13.056-1.952 19.84-1.952 0.064 0 0.128-0.064 0.192-0.064h0.128c7.008 0 13.824 0.8 20.576 2.048 2.24 0.448 4.512 1.12 6.688 1.696 4.32 1.088 8.608 2.336 12.672 3.936 2.464 0.928 4.8 1.984 7.264 3.072 3.808 1.888 7.456 3.872 11.072 6.016 2.048 1.28 4.256 2.464 6.24 3.872 4.384 3.168 8.576 6.592 12.448 10.272 0.864 0.736 1.824 1.376 2.56 2.176 4.672 4.672 8.8 9.824 12.672 15.328 0.96 1.44 1.792 2.976 2.656 4.448 2.656 4.16 5.056 8.544 7.136 13.088 0.928 1.984 1.792 4.128 2.56 6.176 0.768 2.176 1.952 4.288 2.56 6.496 3.008 5.216 4.896 11.104 4.896 17.472v624c0 61.728-50.24 112-112 112zM86.624 751.456v32h0.032l-0.032-32zM86.624 783.488l-22.624 22.592 90.496 90.56 22.624-22.656-90.496-90.496zM154.496 760.864l45.248 45.248 153.472-153.472c-0.512-3.968-1.216-7.904-1.216-12 0-17.664-14.336-32-32-32h-13.248l-152.256 152.224zM576 64.64c0-17.664-14.336-32-32-32h-448c-17.664 0-32 14.336-32 32v448c0 17.664 14.336 32 32 32h224c52.928 0 96 43.104 96 96 0 17.632 14.336 32 32 32h96c17.664 0 32-14.368 32-32v-576zM800 88.032l-160 150.4v228.384l160 150.4v-529.184zM959.968 48.64c0-3.328-0.352-6.496-0.96-9.632-0.992-5.056-3.040-9.696-5.504-14.016-0.384-0.672-0.672-1.44-1.056-1.984-2.56-3.936-5.696-7.424-9.184-10.496-0.672-0.576-1.312-1.12-1.984-1.696-3.68-2.848-7.776-5.216-12.192-6.912-0.672-0.352-1.44-0.48-2.048-0.672-4.672-1.6-9.696-2.624-14.912-2.624h-0.128c-5.248 0-10.24 1.024-15.072 2.624-0.672 0.192-1.248 0.384-1.888 0.64-4.512 1.696-8.64 4.096-12.352 7.008-0.672 0.576-1.344 1.088-1.984 1.696-7.808 6.752-13.632 15.808-15.744 26.496-0.256 1.184-0.64 2.4-0.992 3.552v614.016c0 23.072 16.32 42.272 38.016 46.912 0.128 0.032 0.256 0.128 0.416 0.16 3.136 0.64 6.272 0.928 9.664 0.928 26.368-0.032 47.936-21.568 47.936-48.032l-0.032-607.968zM384 320.64c-24.672 0-46.976-9.632-64-24.896-17.024 15.328-39.328 24.896-64 24.896-52.928 0-96-43.072-96-96 0-52.864 43.072-96 96-96 24.672 0 46.976 9.664 64 24.96 17.024-15.328 39.328-24.96 64-24.96 52.928 0 96 43.136 96 96 0 52.928-43.072 96-96 96zM256 192.64c-17.664 0-32 14.336-32 32 0 17.696 14.336 32 32 32s32-14.304 32-32c0-17.664-14.336-32-32-32zM384 192.64c-17.664 0-32 14.336-32 32 0 17.696 14.336 32 32 32s32-14.304 32-32c0-17.664-14.336-32-32-32z" />
<glyph unicode="&#xe922;" glyph-name="callendar" horiz-adv-x="987" d="M658.581 753.548h-297.29c-16.516 0-33.032 12.387-33.032 33.032s12.387 33.032 33.032 33.032h297.29c16.516 0 33.032-12.387 33.032-33.032s-16.516-33.032-33.032-33.032zM955.871-64h-924.903c-16.516 0-33.032 12.387-33.032 33.032v817.548c0 16.516 12.387 33.032 33.032 33.032h53.677c16.516 0 33.032-12.387 33.032-33.032s-12.387-33.032-33.032-33.032h-24.774v-755.613h862.968v755.613h-24.774c-16.516 0-33.032 12.387-33.032 33.032s12.387 33.032 33.032 33.032h53.677c16.516 0 33.032-12.387 33.032-33.032v-817.548c4.129-16.516-12.387-33.032-28.903-33.032zM955.871 534.71h-924.903c-16.516 0-33.032 12.387-33.032 33.032s12.387 33.032 33.032 33.032h924.903c16.516 0 33.032-12.387 33.032-33.032s-16.516-33.032-33.032-33.032zM216.774 452.129h28.903c45.419 0 78.452-37.161 78.452-78.452v0c0-45.419-37.161-78.452-78.452-78.452h-28.903c-45.419 0-78.452 37.161-78.452 78.452v0c0 45.419 33.032 78.452 78.452 78.452zM472.774 452.129h28.903c45.419 0 78.452-37.161 78.452-78.452v0c0-45.419-37.161-78.452-78.452-78.452h-28.903c-45.419 0-78.452 37.161-78.452 78.452v0c-4.129 45.419 33.032 78.452 78.452 78.452zM728.774 452.129h28.903c45.419 0 78.452-37.161 78.452-78.452v0c0-45.419-37.161-78.452-78.452-78.452h-28.903c-45.419 0-78.452 37.161-78.452 78.452v0c-4.129 45.419 33.032 78.452 78.452 78.452zM216.774 249.806h28.903c45.419 0 78.452-37.161 78.452-78.452v0c0-45.419-37.161-78.452-78.452-78.452h-28.903c-45.419 0-78.452 37.161-78.452 78.452v0c0 41.29 33.032 78.452 78.452 78.452zM472.774 249.806h28.903c45.419 0 78.452-37.161 78.452-78.452v0c0-45.419-37.161-78.452-78.452-78.452h-28.903c-45.419 0-78.452 37.161-78.452 78.452v0c-4.129 41.29 33.032 78.452 78.452 78.452zM728.774 249.806h28.903c45.419 0 78.452-37.161 78.452-78.452v0c0-45.419-37.161-78.452-78.452-78.452h-28.903c-45.419 0-78.452 37.161-78.452 78.452v0c-4.129 41.29 33.032 78.452 78.452 78.452zM241.548 670.968c-24.774 0-41.29 16.516-41.29 41.29v206.452c0 24.774 16.516 41.29 41.29 41.29s41.29-16.516 41.29-41.29v-206.452c0-20.645-20.645-41.29-41.29-41.29zM774.194 670.968c-24.774 0-41.29 16.516-41.29 41.29v206.452c0 24.774 16.516 41.29 41.29 41.29s41.29-16.516 41.29-41.29v-206.452c0-20.645-20.645-41.29-41.29-41.29z" />
<glyph unicode="&#xe923;" glyph-name="msg" d="M735.753-63.968c-8.767 0.022-16.691 3.616-22.396 9.404l-150.623 150.591h-466.737c-53.018 0-95.997 42.979-95.997 95.997v0 415.987c0 53.018 42.979 95.997 95.997 95.997v0h287.991v159.995c0 53.018 42.979 95.997 95.997 95.997v0h447.986c53.018 0 95.997-42.979 95.997-95.997v0-319.99c0-53.018-42.979-95.997-95.997-95.997v0h-159.995v-479.985c0 0 0-0.001 0-0.001 0-17.673-14.326-31.999-31.999-31.999-0.079 0-0.157 0-0.236 0.001h0.012zM95.997 640.010c-17.673 0-31.999-14.326-31.999-31.999v0-415.987c0-17.673 14.326-31.999 31.999-31.999v0h479.985c8.839-0.041 16.835-3.614 22.658-9.378l105.338-105.37v562.734c0.001 0.105 0.002 0.23 0.002 0.354 0 17.478-14.169 31.647-31.647 31.647-0.124 0-0.249-0.001-0.373-0.002h0.019zM479.985 896.002c-0.105 0.001-0.23 0.002-0.354 0.002-17.478 0-31.647-14.169-31.647-31.647 0-0.124 0.001-0.249 0.002-0.373v0.019-159.995h223.993c53.018 0 95.997-42.979 95.997-95.997v0-95.997h159.995c17.673 0 31.999 14.326 31.999 31.999v0 319.99c0 17.673-14.326 31.999-31.999 31.999v0zM201.37 438.704c-5.741-5.782-9.289-13.748-9.289-22.543s3.548-16.761 9.291-22.545l-0.002 0.002c5.852-5.732 13.873-9.269 22.719-9.269s16.867 3.537 22.725 9.274l-0.006-0.005c5.741 5.782 9.289 13.748 9.289 22.543s-3.548 16.761-9.291 22.545l0.002-0.002c-5.925 5.566-13.923 8.985-22.719 8.985s-16.794-3.42-22.737-9.002l0.018 0.016zM361.365 438.704c-5.741-5.782-9.289-13.748-9.289-22.543s3.548-16.761 9.291-22.545l-0.002 0.002c5.852-5.732 13.873-9.269 22.719-9.269s16.867 3.537 22.725 9.274l-0.006-0.005c5.741 5.782 9.289 13.748 9.289 22.543s-3.548 16.761-9.291 22.545l0.002-0.002c-5.925 5.566-13.923 8.985-22.719 8.985s-16.794-3.42-22.737-9.002l0.018 0.016zM521.36 438.704c-4.722-5.541-7.595-12.783-7.595-20.697 0-17.673 14.326-31.999 31.999-31.999 7.921 0 15.171 2.878 20.759 7.646l-0.045-0.037c5.907 5.705 9.574 13.696 9.574 22.543s-3.668 16.838-9.565 22.535l-0.009 0.009c-5.866 5.567-13.813 8.99-22.559 8.99s-16.693-3.424-22.574-9.004l0.014 0.014z" />
<glyph unicode="&#xe924;" glyph-name="lupa-icon1" d="M404.211 906.105v-53.895c82.028 0 155.81-33.091 209.597-86.824 53.733-53.787 86.771-127.569 86.824-209.597-0.054-82.028-33.091-155.81-86.824-209.597-53.787-53.733-127.569-86.771-209.597-86.824-82.028 0.054-155.81 33.091-209.597 86.824-53.733 53.787-86.824 127.569-86.824 209.597s33.091 155.81 86.824 209.597c53.787 53.733 127.569 86.824 209.597 86.824v107.789c-223.286 0-404.211-180.925-404.211-404.211s180.925-404.157 404.211-404.211c223.286 0.054 404.157 180.925 404.211 404.211-0.054 223.286-180.925 404.211-404.211 404.211v-53.895zM610.466 273.435l322.722-293.888 72.542 79.656-322.722 293.888z" />
<glyph unicode="&#xe925;" glyph-name="location1" horiz-adv-x="876" d="M405.858 838.617l0.549 37.418h-4.789c-173.968 0-316.205-139.643-318.849-314.21v-4.789c0-56.825 15.217-112.603 44.003-161.595l234.684-398.075c6.586-11.225 18.659-18.21 31.68-18.41s25.294 6.486 32.229 17.512l246.359 390.841c33.127 52.634 48.992 111.505 48.942 169.478 0.050 105.967-52.934 209.789-149.322 270.306-49.391 31.132-106.516 47.995-164.888 48.893l-0.599-37.368-0.549-37.418c44.702-0.698 88.356-13.57 126.223-37.418 73.888-46.398 114.249-125.674 114.299-206.945 0-44.452-12.024-89.204-37.468-129.665l-213.581-338.905-203.503 345.142c-22.101 37.518-33.726 80.174-33.726 123.678l0.050 3.642c1.946 133.606 110.906 240.522 244.014 240.522h3.692l0.549 37.368zM531.831 555.189l-37.418 0.549c-0.698-50.689-42.157-91.399-92.746-91.399h-1.347c-50.788 0.748-91.499 42.157-91.449 92.746v1.397c0.748 50.788 42.157 91.499 92.746 91.449h1.547c50.589-0.499 91.349-41.808 91.299-92.247v-1.297l37.418-0.1-37.368 1.746-0.050-1.048-0.050-1.247 37.418-0.549 37.368-1.796 0.050 1.048 0.050 1.646v1.596c0 91.449-73.638 166.085-165.287 167.083h-2.395c-91.449 0-166.185-73.439-167.582-165.187v0.249-2.744c0-91.449 73.439-166.185 165.187-167.582h2.445c91.499 0 166.235 73.439 167.582 165.187l-37.418 0.499z" />
<glyph unicode="&#xe926;" glyph-name="icon-kurs1" d="M921.6 558.504v299.096c-0.030 28.264-22.936 51.17-51.2 51.2h-17.066c-0.030 28.264-22.936 51.17-51.2 51.2h-290.134c-19.682-0.064-38.364-8.674-51.2-23.592-12.836 14.918-31.518 23.528-51.2 23.592h-290.134c-28.264-0.030-51.17-22.936-51.2-51.2h-17.066c-28.264-0.030-51.17-22.936-51.2-51.2v-631.466c0.030-28.264 22.936-51.17 51.2-51.2h563.2v-85.334c0.098-84.79 68.81-153.502 153.6-153.6h102.4c84.79 0.098 153.502 68.81 153.6 153.6v324.266c-0.114 65.016-41.116 122.93-102.4 144.638zM853.334 874.666h17.066c9.42-0.012 17.054-7.646 17.066-17.066v-291.14c-5.666 0.652-11.364 0.988-17.066 1.006h-17.066v307.2zM170.666 925.866h102.4v-224.416l-37.876 47.342c-3.236 4.050-8.14 6.408-13.324 6.408s-10.088-2.358-13.324-6.408l-37.876-47.342v224.416zM102.4 908.8c0.012 9.42 7.646 17.054 17.066 17.066h17.066v-273.066c-0.004-7.25 4.574-13.708 11.416-16.108 6.84-2.4 14.45-0.214 18.976 5.45l54.942 68.674 54.942-68.674c3.236-4.052 8.14-6.41 13.324-6.408 4.528-0.004 8.87 1.794 12.072 4.994 3.202 3.202 4.998 7.544 4.994 12.072v273.066h102.4c18.844-0.018 34.114-15.29 34.134-34.134v-556.68c-10.688 6.814-23.084 10.47-35.758 10.548h-305.574v563.2zM102.4 311.466h305.576c18.782-0.658 34.038-15.386 35.356-34.134h-340.932v34.134zM614.4 209.066h-563.2c-9.42 0.012-17.054 7.646-17.066 17.066v631.468c0.012 9.42 7.646 17.054 17.066 17.066h17.066v-614.4c0-9.426 7.64-17.066 17.066-17.066h529.068v-34.134zM614.4 277.334h-136.132c1.342 18.768 16.634 33.496 35.44 34.134h100.692v-34.134zM614.4 345.6h-100.692c-12.704-0.076-25.13-3.742-35.842-10.572v556.706c0.018 18.844 15.29 34.114 34.134 34.134h290.134c9.42-0.012 17.054-7.646 17.066-17.066v-341.334h-51.2c-84.79-0.098-153.502-68.81-153.6-153.6v-68.268zM802.134 533.334v-221.866h-153.6v102.4c0.074 65.948 53.518 119.392 119.466 119.466h34.134zM989.866 89.6c-0.074-65.948-53.518-119.392-119.466-119.466h-102.4c-65.948 0.074-119.392 53.518-119.466 119.466v187.734h341.334v-187.734h-0.002zM989.866 311.466h-153.6v221.868h34.134c65.948-0.074 119.392-53.518 119.466-119.466v-102.402z" />
<glyph unicode="&#xe927;" glyph-name="icon-insta1" d="M292.571 960h438.857c161.583 0 292.571-130.989 292.571-292.571v-438.857c0-161.583-130.989-292.571-292.571-292.571h-438.857c-161.583 0-292.571 130.989-292.571 292.571v438.857c0 161.583 130.989 292.571 292.571 292.571zM292.571 862.476c-107.722 0-195.048-87.326-195.048-195.048v-438.857c0-107.722 87.326-195.048 195.048-195.048h438.857c107.722 0 195.048 87.326 195.048 195.048v438.857c0 107.722-87.326 195.048-195.048 195.048h-438.857zM512 716.19c148.118 0 268.19-120.073 268.19-268.19s-120.073-268.19-268.19-268.19c-148.118 0-268.19 120.073-268.19 268.19 5.038 145.98 122.211 263.152 268.19 268.19zM515.901 618.667c-94.807-2.6-171.081-78.788-173.787-173.592-0.013-44.241 17.559-86.674 48.847-117.953s73.726-48.839 117.967-48.813c94.836 2.551 171.152 78.76 173.836 173.592 0 44.246-17.583 86.678-48.879 117.956s-73.738 48.836-117.984 48.81zM780.19 764.952c26.93 0 48.762-21.831 48.762-48.762s-21.831-48.762-48.762-48.762c-26.93 0-48.762 21.831-48.762 48.762s21.831 48.762 48.762 48.762z" />
<glyph unicode="&#xe928;" glyph-name="icon_scroll1" horiz-adv-x="512" d="M256.004 719.604c9.591 0 17.375-7.833 17.375-17.523v-105.139c0-9.69-7.784-17.523-17.375-17.523s-17.375 7.833-17.375 17.523v105.139c0 9.69 7.784 17.523 17.375 17.523zM273.38 25.696l57.339 57.826c3.475 3.505 6.95 5.257 12.163 5.257s8.688-1.752 12.163-5.257c6.95-7.027 6.95-17.523 0-24.55l-86.877-87.615c-3.475-3.505-7.819-5.239-12.163-5.239s-8.688 1.735-12.163 5.239l-86.877 87.615c-6.95 7.027-6.95 17.523 0 24.55 3.475 3.505 6.95 5.257 12.163 5.257s8.688-1.752 12.163-5.257l57.339-57.826v238.314c0 10.496 6.95 17.523 17.375 17.523s17.375-7.027 17.375-17.523v-238.314zM192.474 187.254c8.861-3.312 13.501-13.283 10.46-22.202-3.11-9.024-13.049-13.948-22.102-10.847-19.721 7.027-65.818 26.46-102.95 74.333-45.124 58.229-47.73 120.717-47.765 140.605v332.939c0.035 17.295 2.102 91.874 59.963 154.904 65.28 71.074 151.41 72.843 165.918 72.896 14.387 0 101.021-1.489 166.37-72.896 57.739-63.083 59.528-137.696 59.511-154.904v-332.939c0.087-19.608-2.207-78.276-43.369-134.945-38.452-52.937-88.511-73.352-107.311-79.975-9-3.137-18.974 1.717-22.119 10.794-3.128 9.094 1.72 19.153 10.721 22.324 16.646 6.045 56.088 22.955 87.59 64.345 37.114 48.732 39.616 100.407 39.738 117.457v332.939c0 14.001-1.477 78.871-52.318 132.895-55.185 58.632-126.546 59.859-138.813 59.859-11.867-0.035-88.059-1.612-143.713-65.274-50.146-57.353-48.113-124.519-47.418-138.205v-322.215c0.174-17.138 2.867-67.236 38.487-115.284 31.971-43.142 72.664-60.577 89.119-66.605z" />
<glyph unicode="&#xe929;" glyph-name="icona_skill1" horiz-adv-x="928" d="M464.876 932.42c-0.531 0-1.062 0-1.592-0.027h-0.013c-14.172-0.414-27.322-6.367-37.049-16.737s-14.835-23.945-14.424-38.199c0.425-14.268 6.33-27.495 16.653-37.278 10.31-9.783 23.66-15.149 38.004-14.508 29.22 0.854 52.309 25.506 51.459 54.95-0.849 28.883-24.496 51.8-53.039 51.8v0zM464.823 798.949c-20.382 0-39.689 7.688-54.578 21.809-15.486 14.668-24.35 34.529-24.973 55.911s7.059 41.736 21.629 57.299c14.583 15.563 34.328 24.479 55.586 25.119 44.068 0.641 80.639-33.541 81.953-77.68 1.287-44.152-33.36-81.124-77.216-82.432-0.796-0.013-1.592-0.027-2.402-0.027v0zM463.835 673.28h-0.080c-7.341 0.057-13.235 6.436-13.195 14.274l0.757 121.836c0.040 7.782 5.974 14.076 13.275 14.076h0.080c7.341-0.057 13.235-6.436 13.195-14.274l-0.757-121.836c-0.040-7.796-5.987-14.076-13.275-14.076zM79.564 263.002c-8.148 0-16.414-1.909-24.151-5.899-12.619-6.527-21.961-17.578-26.3-31.152-4.326-13.574-3.145-28.016 3.344-40.695v0c6.476-12.693 17.489-22.076 30.971-26.441 13.482-4.391 27.866-3.19 40.459 3.35 26.022 13.441 36.319 45.674 22.956 71.874-9.408 18.379-28.025 28.963-47.28 28.963zM79.737 129.518c-8.187 0-16.414 1.295-24.429 3.884-20.236 6.527-36.73 20.621-46.457 39.654-9.727 19.006-11.505 40.695-5.003 61.050 6.502 20.368 20.515 36.958 39.437 46.741 38.986 20.181 87.075 4.645 107.165-34.609 20.050-39.294 4.591-87.65-34.421-107.818-11.425-5.899-23.819-8.903-36.292-8.903zM150.755 236.373c-5 0-9.829 2.482-12.428 6.872-3.821 6.432-1.335 14.558 5.525 18.134l53.504 27.916c6.86 3.603 15.496 1.254 19.303-5.191 3.821-6.432 1.335-14.572-5.525-18.134l-53.504-27.916c-2.173-1.148-4.545-1.681-6.874-1.681zM82.010 700.566c-5.612 0-11.251-0.874-16.739-2.649-13.886-4.451-25.205-14.062-31.867-27.032h-0.014c-6.663-12.97-7.878-27.756-3.427-41.641 4.451-13.871 14.063-25.203 27.048-31.865 26.747-13.776 59.734-3.154 73.511 23.619 13.749 26.786 3.154 59.758-23.621 73.492-7.824 4.028-16.33 6.075-24.89 6.075v0zM81.805 564.053c-12.589 0-25.341 2.908-37.274 9.038-19.47 9.994-33.875 26.964-40.565 47.812-6.69 20.82-4.874 43.006 5.134 62.461 10.008 19.469 26.979 33.872 47.815 40.562 20.822 6.703 43.009 4.86 62.479-5.133 40.142-20.629 56.034-70.093 35.417-110.259-14.527-28.247-43.268-44.48-73.006-44.48v0zM286.825 523.093c-2.070 0-4.18 0.467-6.142 1.453l-136.77 68.9c-6.656 3.36-9.294 11.388-5.898 17.948 3.409 6.547 11.54 9.161 18.209 5.814l136.77-68.9c6.656-3.36 9.294-11.388 5.898-17.948-2.408-4.614-7.143-7.267-12.067-7.267zM846.572 263.681c-19.824 0-38.966-10.814-48.659-29.642-13.749-26.761-3.154-59.734 23.62-73.497 12.97-6.663 27.77-7.892 41.628-3.427 13.885 4.451 25.203 14.063 31.866 27.048 0 0 0 0 0 0.014 6.676 12.943 7.891 27.73 3.441 41.616-4.451 13.872-14.063 25.191-27.047 31.867-7.96 4.082-16.466 6.021-24.848 6.021zM846.395 127.147c-12.847 0-25.599 3.072-37.355 9.107-40.154 20.644-56.046 70.111-35.416 110.279 20.671 40.182 70.108 56.034 110.275 35.417 19.469-10.008 33.873-26.993 40.577-47.828 6.676-20.808 4.847-42.981-5.161-62.437-9.994-19.47-26.965-33.874-47.799-40.564-8.246-2.649-16.698-3.973-25.122-3.973zM791.322 236.373c-2.216 0-4.461 0.44-6.549 1.382l-67.153 30.167c-6.961 3.13-9.66 10.504-6.038 16.508 3.651 5.967 12.246 8.278 19.164 5.185l67.153-30.167c6.961-3.13 9.66-10.516 6.038-16.508-2.543-4.182-7.487-6.566-12.615-6.566zM846.449 700.571c-8.558 0-17.061-2.034-24.882-6.062-12.967-6.676-22.575-17.981-27.025-31.866-4.463-13.885-3.248-28.672 3.426-41.642 13.772-26.774 46.748-37.382 73.473-23.62 12.98 6.676 22.575 17.995 27.039 31.866 4.463 13.885 3.235 28.672-3.426 41.642h-0.014c-6.661 12.97-17.976 22.582-31.843 27.047-5.501 1.775-11.138 2.635-16.747 2.635zM846.667 564.053c-29.741 0-58.472 16.234-72.981 44.468-10.005 19.469-11.82 41.656-5.146 62.477 6.702 20.821 21.088 37.806 40.551 47.8 19.45 9.994 41.616 11.824 62.444 5.134s37.794-21.094 47.785-40.563c10.005-19.456 11.834-41.642 5.146-62.463-6.674-20.835-21.088-37.806-40.551-47.813-11.929-6.13-24.677-9.038-37.248-9.038zM655.58 523.093c-5.056 0-9.919 2.736-12.371 7.497-3.463 6.731-0.734 14.967 6.095 18.387l136.122 68.187c6.816 3.461 15.155 0.725 18.619-6.006 3.463-6.745 0.734-14.967-6.095-18.387l-136.122-68.2c-1.995-1.012-4.142-1.478-6.248-1.478zM81.92 318.293c-7.537 0-13.653 6.211-13.653 13.894v190.666c0 7.669 6.117 13.894 13.653 13.894s13.653-6.224 13.653-13.894v-190.666c0-7.683-6.117-13.894-13.653-13.894zM764.677 700.587c-2.425 0-4.877 0.65-7.099 2.003l-177.701 109.474c-6.368 3.925-8.346 12.275-4.417 18.636 3.929 6.347 12.275 8.323 18.643 4.412l177.701-109.461c6.368-3.925 8.346-12.275 4.417-18.636-2.561-4.141-7.005-6.429-11.543-6.429zM177.404 714.24c-4.539 0-8.983 2.287-11.544 6.428-3.929 6.36-1.951 14.71 4.417 18.634l177.699 109.463c6.382 3.911 14.715 1.935 18.644-4.412 3.929-6.36 1.951-14.71-4.417-18.634l-177.699-109.477c-2.222-1.353-4.675-2.003-7.1-2.003zM846.507 318.293c-7.537 0-13.653 6.211-13.653 13.894v190.666c0 7.669 6.117 13.894 13.653 13.894s13.653-6.224 13.653-13.894v-190.666c0-7.683-6.117-13.894-13.653-13.894zM477.867 331.947h-27.307c-7.537 0-13.653 6.103-13.653 13.653s6.117 13.653 13.653 13.653h27.307c7.537 0 13.653-6.103 13.653-13.653s-6.117-13.653-13.653-13.653zM464.213 591.36c-50.381 0-68.267-44.128-68.267-81.92s17.886-81.92 68.267-81.92c50.381 0 68.267 44.128 68.267 81.92s-17.886 81.92-68.267 81.92zM464.213 400.213c-57.167 0-95.573 43.895-95.573 109.227s38.407 109.227 95.573 109.227c57.167 0 95.573-43.895 95.573-109.227s-38.407-109.227-95.573-109.227zM464.213 181.76c-7.537 0-13.653 6.103-13.653 13.653v150.187c0 7.55 6.117 13.653 13.653 13.653s13.653-6.103 13.653-13.653v-150.187c0-7.55-6.117-13.653-13.653-13.653zM464.213-64c-110.087 0-145.845 44.346-147.319 46.23-1.857 2.403-2.867 5.338-2.867 8.383v68.267c0 7.55 6.117 13.653 13.653 13.653s13.653-6.103 13.653-13.653v-62.696c9.503-8.424 43.882-32.877 122.88-32.877 79.203 0 113.418 24.385 122.88 32.836v62.737c0 7.55 6.117 13.653 13.653 13.653s13.653-6.103 13.653-13.653v-68.267c0-3.045-1.010-5.98-2.867-8.383-1.475-1.884-37.233-46.23-147.319-46.23zM484.040 95.867c9.952-4.584 31.318-9.781 40.628-9.781h101.448c9.789 0 20.423 4.612 25.857 11.209 4.164 5.060 3.358 9.073 3.099 10.393l-21.393 158.138c-7.795 37.994-40.601 66.221-77.844 66.221h-0.928l-66.267-146.589c-5.188-9.686-14.403-15.168-24.464-15.168s-19.277 5.482-24.041 14.311l-66.69 147.446h-7.918c-41.407 0-84.124-31.355-91.428-67.105l-28.246-157.009c-0.601-4.135 0.587-8.108 3.713-11.699 5.256-6.067 15.386-10.148 25.202-10.148h131.756l38.663 3.183c-30.458 19.181-84.615 48.482-127.141 44.238-4.382-0.34-8.642 1.238-11.536 4.503-2.908 3.251-4.068 7.686-3.14 11.944l15.058 68.479c1.625 7.346 8.915 11.957 16.26 10.366 7.372-1.605 12.027-8.856 10.416-16.188l-11.372-51.747c65.68-3.931 139.797-57.215 150.309-64.996zM626.116 58.88h-101.448c-9.829 0-24.41 2.993-36.738 6.706-0.573-0.109-1.16-0.204-1.761-0.258l-78.526-6.407-132.875-0.041c-17.83 0-35.4 7.495-45.857 19.575-8.259 9.509-11.809 21.548-9.993 33.858l28.355 157.743c9.911 48.496 64.028 89.197 118.254 89.197h16.737c5.365 0 10.239-3.129 12.451-8.012l69.885-154.601 69.038 154.601c2.212 4.884 7.072 8.012 12.451 8.012h9.748c50.171 0 94.226-37.382 104.752-88.897l21.406-158.206c2.171-10.747-0.942-22.445-8.915-32.117-10.594-12.841-29.024-21.153-46.963-21.153z" />
<glyph unicode="&#xe92a;" glyph-name="readmore" horiz-adv-x="1138" d="M1042.539 381.54h-977.15c-40.157 0-66.928 26.771-66.928 66.928s26.771 66.928 66.928 66.928h977.15c40.157 0 66.928-26.771 66.928-66.928s-33.464-66.928-66.928-66.928zM1042.539 381.54c-20.078 0-33.464 6.693-46.85 20.078l-414.954 421.647c-26.771 26.771-26.771 66.928 0 93.699s66.928 26.771 93.699 0l414.954-421.647c26.771-26.771 26.771-66.928 0-93.699-13.386-13.386-33.464-20.078-46.85-20.078zM620.892-40.107c-20.078 0-33.464 6.693-46.85 20.078-26.771 26.771-26.771 66.928 0 93.699l414.954 414.954c26.771 26.771 66.928 26.771 93.699 0s26.771-66.928 0-93.699l-414.954-414.954c-13.386-13.386-26.771-20.078-46.85-20.078z" />
<glyph unicode="&#xe92b;" glyph-name="acc" horiz-adv-x="968" d="M113.315-17.357l-112.527 11.253c11.253 163.165 95.648 315.077 225.055 416.352-61.89 61.89-95.648 146.286-95.648 241.934 0 84.396 28.132 168.791 84.396 225.055 61.89 61.89 146.286 90.022 253.187 90.022v-112.527c-73.143 0-135.033-22.505-174.418-61.89-33.758-33.758-56.264-84.396-56.264-146.286-5.626-78.769 39.385-151.912 106.901-191.297l90.022-50.637-90.022-50.637c-129.407-78.769-219.429-219.429-230.681-371.341zM855.996-67.995c-11.253 163.165-106.901 315.077-253.187 393.846l-90.022 50.637 90.022 50.637c73.143 39.385 118.154 118.154 112.527 202.549 0 67.516-22.505 118.154-56.264 157.538-39.385 39.385-101.275 61.89-185.67 61.89v112.527c106.901 0 202.549-33.758 264.44-95.648 56.264-61.89 90.022-140.659 90.022-236.308 5.626-95.648-33.758-185.67-101.275-247.56 140.659-106.901 225.055-264.44 241.934-438.857l-112.527-11.253z" />
<glyph unicode="&#xe92c;" glyph-name="payment" horiz-adv-x="973" d="M938.667 960h-904.533c-25.6 0-34.133-12.8-34.133-34.133v-503.467c0-21.333 17.067-34.133 34.133-34.133h72.533c21.333 0 34.133 17.067 34.133 34.133 0 21.333-17.067 34.133-34.133 34.133h-42.667v123.733c4.267-4.267 12.8-8.533 21.333-8.533 12.8-4.267 25.6-4.267 34.133-12.8 4.267-4.267 8.533-4.267 17.067-4.267s12.8 4.267 21.333 12.8c-4.267-21.333-4.267-42.667-4.267-64 0-157.867 106.667-285.867 251.733-324.267v-46.933h-21.333c-21.333 0-34.133-17.067-34.133-34.133v-128c0-25.6 12.8-34.133 34.133-34.133s34.133 17.067 34.133 34.133v93.867h136.533v-93.867c0-21.333 17.067-34.133 34.133-34.133 21.333 0 34.133 17.067 29.867 34.133v128c0 21.333-17.067 34.133-34.133 34.133h-8.533v46.933c140.8 38.4 247.467 166.4 251.733 324.267 0 21.333-4.267 42.667-4.267 59.733 4.267-4.267 17.067-8.533 21.333-8.533s12.8 0 21.333 0c12.8 8.533 21.333 12.8 34.133 12.8 4.267 0 4.267 0 8.533 0v-106.667h-42.667c-21.333 0-34.133-17.067-34.133-34.133 0-21.333 17.067-34.133 34.133-34.133h72.533c17.067 0 34.133 12.8 34.133 29.867v503.467c0 25.6-12.8 34.133-34.133 34.133zM64 900.267h102.4c-4.267-4.267-8.533-8.533-8.533-17.067-4.267-42.667-34.133-68.267-72.533-72.533-8.533 0-17.067-4.267-21.333-8.533v98.133zM507.733 128h-38.4v34.133c4.267 0 12.8 0 17.067 0s12.8 0 17.067 0v-34.133zM550.4 230.4c-4.267 0-4.267 0-8.533 0-8.533 0-12.8-4.267-17.067-8.533-8.533 0-21.333 0-34.133 0-8.533 0-21.333 0-29.867 0-4.267 4.267-12.8 8.533-21.333 8.533-4.267 0-4.267 0-8.533 0-119.467 25.6-213.333 136.533-213.333 264.533 0 149.333 123.733 273.067 273.067 273.067s268.8-123.733 273.067-273.067c0-128-93.867-234.667-213.333-264.533zM904.533 627.2c-4.267 0-8.533 4.267-12.8 4.267-25.6 0-46.933-8.533-68.267-21.333-8.533-4.267-12.8-8.533-12.8-17.067-38.4 145.067-170.667 247.467-324.267 247.467s-281.6-102.4-324.267-238.933c0 4.267 0 8.533-4.267 12.8-21.333 12.8-42.667 21.333-72.533 21.333-8.533 0-17.067-4.267-21.333-12.8v128c4.267-4.267 12.8-4.267 21.333-4.267 72.533 0 128 59.733 136.533 132.267 0 8.533-4.267 17.067-12.8 25.6h558.933c-8.533-8.533-12.8-17.067-12.8-25.6 4.267-72.533 59.733-128 132.267-132.267 4.267 0 12.8 0 17.067 4.267v-123.733zM904.533 806.4c-4.267 4.267-8.533 4.267-12.8 4.267-38.4 4.267-68.267 34.133-72.533 72.533 0 8.533-4.267 17.067-8.533 21.333h93.867v-98.133zM460.8 558.933h102.4c21.333 0 34.133 12.8 34.133 34.133s-17.067 34.133-34.133 34.133h-42.667v25.6c0 21.333-12.8 34.133-34.133 34.133s-34.133-17.067-34.133-34.133v-21.333c-38.4-8.533-68.267-38.4-68.267-85.333 0-42.667 34.133-81.067 81.067-81.067h46.933c8.533 0 17.067-8.533 17.067-17.067s-8.533-17.067-17.067-17.067h-25.6c0 0 0 0 0 0s0 0 0 0h-72.533c-21.333 0-34.133-12.8-34.133-34.133s12.8-34.133 34.133-34.133h42.667v-17.067c0-21.333 17.067-34.133 34.133-34.133s29.867 17.067 34.133 34.133v17.067c38.4 8.533 72.533 42.667 72.533 85.333s-34.133 81.067-81.067 81.067h-51.2c-8.533 0-17.067 8.533-17.067 17.067 0 4.267 4.267 12.8 12.8 12.8z" />
<glyph unicode="&#xe92d;" glyph-name="star-black" horiz-adv-x="1078" d="M1077.677 567.742l-388.129 33.032-152.774 359.226-148.645-359.226-388.129-33.032 293.161-251.871-86.71-379.871 330.323 202.323 334.452-202.323-86.71 379.871 293.161 251.871zM540.903 212.645l-239.484-144.516 61.935 272.516-210.581 181.677 276.645 24.774 107.355 256 115.613-256 276.645-24.774-210.581-181.677 61.935-272.516-239.484 144.516z" />
<glyph unicode="&#xe92e;" glyph-name="delete" d="M512-64c-281.6 0-512 230.4-512 512s230.4 512 512 512c281.6 0 512-230.4 512-512s-230.4-512-512-512zM512 857.6c-225.28 0-409.6-184.32-409.6-409.6s184.32-409.6 409.6-409.6 409.6 184.32 409.6 409.6-184.32 409.6-409.6 409.6zM135.575 128.643l694.31 673.989 71.322-73.472-694.31-673.989-71.322 73.472z" />
<glyph unicode="&#xe92f;" glyph-name="edit" d="M822.132-55.204h-780.405c-18.044 0-36.088 18.044-36.088 36.088v780.405c0 18.044 18.044 36.088 36.088 36.088h392.458c18.044 0 36.088-18.044 36.088-36.088s-18.044-36.088-36.088-36.088h-356.37v-708.229h708.229v351.859c0 18.044 18.044 36.088 36.088 36.088s36.088-18.044 36.088-36.088v-392.458c0-18.044-13.533-31.577-36.088-31.577 0 0 0 0 0 0zM822.132-59.715h-780.405c-22.555 0-40.599 18.044-40.599 40.599v780.405c0 22.555 18.044 40.599 40.599 40.599h392.458c22.555 0 40.599-18.044 40.599-40.599s-18.044-40.599-40.599-40.599h-351.859v-699.207h699.207v347.348c0 22.555 18.044 40.599 40.599 40.599s40.599-18.044 40.599-40.599v-392.458c4.511-18.044-18.044-36.088-40.599-36.088zM41.727 792.867c-18.044 0-31.577-13.533-31.577-31.577v-780.405c0-18.044 13.533-31.577 31.577-31.577h780.405c18.044 0 31.577 13.533 31.577 31.577v387.947c0 18.044-13.533 31.577-31.577 31.577s-31.577-13.533-31.577-31.577v-360.881h-721.762v721.762h360.881c18.044 0 31.577 13.533 31.577 31.577s-13.533 31.577-31.577 31.577h-387.947zM1007.084 828.955l-112.775 112.775c-13.533 13.533-36.088 13.533-49.621 0l-496.211-496.211c-4.511-4.511-4.511-9.022-9.022-13.533l-85.709-198.485c-9.022-18.044 0-40.599 18.044-45.11 4.511 0 9.022-4.511 13.533-4.511s9.022 0 13.533 4.511l198.485 85.709c4.511 0 9.022 4.511 13.533 9.022l496.211 496.211c13.533 13.533 13.533 36.088 0 49.621 0 0 0 0 0 0zM357.498 292.144l31.577 76.687 45.11-45.11-76.687-31.577zM474.784 350.788l-58.643 63.154 351.859 351.859 63.154-63.154-356.37-351.859zM862.731 738.735l-63.154 63.154 67.665 63.154 63.154-63.154-67.665-63.154zM289.833 183.88c-4.511 0-9.022 0-18.044 4.511-22.555 9.022-31.577 31.577-22.555 54.132l85.709 198.485c0 4.511 4.511 9.022 9.022 13.533l496.211 496.211c13.533 13.533 45.11 13.533 58.643 0l112.775-112.775c9.022-9.022 13.533-18.044 13.533-31.577 0-9.022-4.511-22.555-13.533-31.577l-496.211-496.211c-4.511-4.511-9.022-9.022-13.533-9.022l-198.485-85.709c-4.511 0-9.022 0-13.533 0zM867.242 946.241c-9.022 0-13.533-4.511-22.555-9.022l-496.211-496.211c-4.511-4.511-4.511-4.511-4.511-9.022l-85.709-198.485c-4.511-13.533 0-31.577 18.044-40.599 9.022-4.511 18.044-4.511 22.555 0l198.485 85.709c4.511 0 9.022 4.511 9.022 4.511l496.211 496.211c4.511 4.511 9.022 13.533 9.022 22.555s-4.511 18.044-9.022 22.555v0 0l-112.775 112.775c-9.022 4.511-13.533 9.022-22.555 9.022zM343.965 283.122l40.599 99.242 54.132-54.132-94.731-45.11zM393.586 359.81l-27.066-54.132 54.132 22.555-27.066 31.577zM474.784 341.766l-67.665 72.176 360.881 360.881 67.665-67.665-4.511-4.511-356.37-360.881zM420.652 413.942l54.132-54.132 347.348 347.348-54.132 54.132-347.348-347.348zM862.731 729.713l-67.665 67.665 72.176 72.176 67.665-67.665-72.176-72.176zM808.599 801.889l54.132-54.132 54.132 54.132-54.132 54.132-54.132-54.132z" />
<glyph unicode="&#xe930;" glyph-name="icon-fb1" horiz-adv-x="455" d="M398.222 448h-113.778v-512h-170.667v512h-113.778v170.667h113.778v113.778c0 83.627-16.612 227.556 170.667 227.556h170.667v-170.667h-113.778c-31.091-0.778-56.111-25.798-56.889-56.889v-113.778h170.667l-56.889-170.667z" />
<glyph unicode="&#xe931;" glyph-name="icon-in1" d="M946.435 960h-870.93c-41.704 0-75.505-32.77-75.505-73.217v-875.439c0-40.449 33.813-73.248 75.505-73.248h870.93c41.694 0 75.458 32.82 75.458 73.248v875.439c0 40.435-33.763 73.217-75.458 73.217zM309.809 104.596h-154.401v461.377h154.401v-461.377zM232.624 629.006h-1.038c-51.777 0-85.341 35.41-85.341 79.741 0 45.225 34.55 79.675 87.354 79.675 52.808 0 85.291-34.441 86.318-79.675 0-44.341-33.497-79.741-87.292-79.741zM866.378 104.596h-154.351v246.853c0 62.027-22.364 104.351-78.183 104.351-42.702 0-68.050-28.553-79.181-56.12-4.125-9.846-5.146-23.616-5.146-37.368v-257.706h-154.322c0 0 2.019 418.103 0 461.375h154.346v-65.41c20.49 31.43 57.104 76.265 139.069 76.265 101.592 0 177.767-65.904 177.767-207.684v-264.556zM549.834 495.513c0.758 1.242 1.816 2.737 2.867 4.192v-4.192h-2.867z" />
<glyph unicode="&#xe932;" glyph-name="alarm-comments1" d="M928 960.032h-448c-52.928 0-96-43.072-96-96v-160h-288c-52.928 0-96-43.072-96-96v-416c0-52.928 43.072-96 96-96h466.752l150.624-150.624c20.064-20.064 54.624-5.984 54.624 22.624 0 271.936 0 214.496 0 480h160c52.928 0 96 43.072 96 96v320c0 52.928-43.072 96-96 96zM704 45.28l-105.344 105.344c-2.944 2.976-6.496 5.312-10.432 6.944-3.904 1.6-8.064 2.464-12.224 2.464h-480c-17.664 0-32 14.336-32 32v416c0 17.664 14.336 32 32 32h576c17.952 0 32-14.048 32-32 0-224.544 0-362.816 0-562.752zM960 544.032c0-17.664-14.336-32-32-32h-160v96c0 52.928-43.072 96-96 96h-224v160c0 17.92 14.048 32 32 32h448c17.664 0 32-14.336 32-32v-320zM201.376 438.72c-12.672-12.608-12-33.152 0-45.088 12.192-12.256 32.992-12.448 45.44 0 12 12 12.672 32.416 0 45.088-11.84 12.128-33.6 11.84-45.44 0zM361.376 438.72c-12.672-12.608-12-33.152 0-45.088 12.192-12.256 32.992-12.448 45.44 0 12 12 12.672 32.416 0 45.088-11.84 12.128-33.6 11.84-45.44 0zM521.376 438.72c-12.544-11.808-12.224-33.568 0-45.088 11.552-12.256 33.248-12.544 45.12 0 12.448 11.808 13.088 32.672 0 45.088-11.52 12.128-33.632 11.84-45.12 0z" />
<glyph unicode="&#xe933;" glyph-name="arrow_down1" horiz-adv-x="1792" d="M1629.056 930.816l-733.056-766.080-733.184 766.080c-17.337 17.909-41.597 29.025-68.453 29.025-25.055 0-47.851-9.676-64.853-25.495l0.058 0.054c-18.198-16.905-29.548-40.968-29.548-67.682 0-24.755 9.747-47.234 25.612-63.808l-0.032 0.034 801.792-837.76c17.33-17.997 41.631-29.176 68.544-29.176s51.214 11.179 68.515 29.146l801.949 837.79c15.833 16.54 25.58 39.019 25.58 63.774 0 26.714-11.35 50.776-29.491 67.629l-0.058 0.053c-16.947 15.7-39.712 25.332-64.727 25.332-26.945 0-51.279-11.175-68.622-29.144l-0.027-0.028z" />
<glyph unicode="&#xe934;" glyph-name="ok" horiz-adv-x="1070" d="M1055.858 504.889v0c-27.307 40.96-77.369 59.164-122.88 54.613h-191.147v254.862c0 104.676-68.267 145.636-122.88 145.636 0 0 0 0 0 0-50.062 0-95.573-27.307-118.329-72.818-18.204-22.756-45.511-72.818-68.267-122.88-36.409-77.369-81.92-168.391-100.124-204.8h-332.231v-623.502h746.382c0 0 4.551 0 4.551 0 27.307 0 54.613 13.653 72.818 40.96 54.613 81.92 122.88 200.249 209.351 354.987 40.96 72.818 45.511 131.982 22.756 172.942zM760.036 13.369c0-4.551-4.551-4.551-13.653-4.551h-441.458v482.418h72.818l4.551 4.551c0 4.551 145.636 295.822 177.493 364.089 9.102 18.204 31.858 31.858 54.613 31.858 0 0 0 0 0 0 45.511 0 54.613-45.511 54.613-72.818v-327.68h263.964c31.858 0 54.613-9.102 63.716-18.204 9.102-18.204 0-54.613-22.756-104.676-91.022-159.289-159.289-273.067-213.902-354.987zM978.489 359.253v0 0 0zM232.107 491.236v-482.418h-159.289v482.418h159.289z" />
<glyph unicode="&#xe935;" glyph-name="arrow_grey1" horiz-adv-x="1792" d="M0 447.981c0-56.524 44.551-102.399 99.556-102.399h1352.521l-228.282-234.749c-19.413-20.019-29.12-46.233-29.12-72.396 0-26.214 9.707-52.428 29.12-72.447 38.877-39.987 101.946-39.987 140.822 0l398.225 409.595c38.877 40.038 38.877 104.805 0 144.792l-398.225 409.595c-38.877 40.038-101.946 40.038-140.822 0-38.877-39.987-38.877-104.754 0-144.792l228.282-234.8h-1352.521c-55.005 0-99.556-45.823-99.556-102.399v0z" />
<glyph unicode="&#xe936;" glyph-name="camera1" d="M928 832h-204.224l-55.168 110.304c-5.408 10.848-16.48 17.696-28.608 17.696h-256c-12.128 0-23.2-6.848-28.64-17.696l-55.136-110.304h-204.224c-52.928 0-96-43.072-96-96v-704c0-52.928 43.072-96 96-96h832c52.928 0 96 43.072 96 96v704c0 52.928-43.072 96-96 96zM64 480h190.368c-19.232-38.624-30.368-81.984-30.368-128s11.136-89.376 30.368-128h-190.368v256zM960 32c0-17.664-14.368-32-32-32h-832c-17.632 0-32 14.336-32 32v128h224c3.008 0 5.696 0.928 8.416 1.696 52.8-59.744 129.76-97.696 215.584-97.696s162.784 37.952 215.552 97.696c2.752-0.768 5.44-1.696 8.448-1.696h224v-128zM288 352c0 123.52 100.512 224 224 224s224-100.48 224-224c0-123.488-100.512-224-224-224s-224 100.512-224 224zM960 224h-190.368c19.232 38.624 30.368 81.984 30.368 128s-11.136 89.376-30.368 128h190.368v-256zM960 544h-224c-3.008 0-5.696-0.928-8.448-1.728-52.768 59.776-129.728 97.728-215.552 97.728s-162.784-37.952-215.584-97.728c-2.72 0.8-5.408 1.728-8.416 1.728h-224v192c0 17.664 14.368 32 32 32h224c12.128 0 23.2 6.848 28.64 17.696l55.136 110.304h216.448l55.168-110.304c5.408-10.848 16.48-17.696 28.608-17.696h224c17.632 0 32-14.336 32-32v-192zM512 448c52.928 0 96-43.072 96-96 0-17.664 14.304-32 32-32s32 14.336 32 32c0 88.224-71.776 160-160 160-17.696 0-32-14.304-32-32 0-17.664 14.304-32 32-32z" />
<glyph unicode="&#xe937;" glyph-name="icon_termin1" horiz-adv-x="1076" d="M959.387 869.718h-122.105v67.002c0 12.863-10.428 23.291-23.291 23.291s-23.291-10.428-23.291-23.291v0-67.002h-505.631v67.002c0 12.863-10.428 23.291-23.291 23.291s-23.291-10.428-23.291-23.291v0-67.002h-122.062c-64.27-0.073-116.351-52.154-116.424-116.417v-700.79c0.073-64.27 52.154-116.351 116.417-116.424h842.97c64.27 0.073 116.351 52.154 116.424 116.417v700.79c-0.073 64.27-52.154 116.351-116.417 116.424h-0.007zM116.424 823.135h122.105v-121.158c0-12.863 10.428-23.291 23.291-23.291s23.291 10.428 23.291 23.291v0 121.158h505.631v-121.158c0-12.863 10.428-23.291 23.291-23.291s23.291 10.428 23.291 23.291v0 121.158h122.105c38.57-0.037 69.826-31.294 69.863-69.86v-198.146h-982.71v198.164c0.049 38.553 31.289 69.793 69.837 69.842h0.005zM959.387-17.439h-842.963c-38.583 0.049-69.842 31.338-69.842 69.928 0 0.008 0 0.015 0 0.023v-0.001 456.144h982.646v-456.144c0-0.006 0-0.014 0-0.022 0-38.59-31.259-69.879-69.837-69.928h-0.005zM699.234 398.254l-209.202-200.101-106.118 106.118c-4.555 4.776-10.967 7.746-18.074 7.746-13.784 0-24.959-11.174-24.959-24.959 0-7.106 2.97-13.519 7.736-18.064l0.010-0.009 123.374-123.374c4.517-4.516 10.756-7.309 17.648-7.309 6.697 0 12.778 2.638 17.261 6.931l-0.009-0.009 226.824 216.905c4.31 4.479 6.965 10.577 6.965 17.296 0 13.784-11.174 24.959-24.959 24.959-6.306 0-12.066-2.339-16.46-6.196l0.028 0.024z" />
<glyph unicode="&#xe939;" glyph-name="check1" horiz-adv-x="1407" d="M1366.054 719.589l-742.409-742.319c-25.485-25.476-60.688-41.233-99.571-41.233s-74.085 15.757-99.571 41.233l-383.324 383.234c-25.502 25.49-41.275 60.711-41.275 99.616 0 77.787 63.059 140.846 140.846 140.846 38.882 0 74.085-15.756 99.571-41.231l283.663-283.663 642.748 642.748c25.49 25.502 60.711 41.275 99.616 41.275 77.787 0 140.846-63.059 140.846-140.846 0-38.882-15.756-74.085-41.231-99.571v0z" />
<glyph unicode="&#xe93a;" glyph-name="facebook1" d="M0 960v-1024h545.361v395.533h-133.336v161.684h133.336v135.437c0 98.612 79.941 178.553 178.553 178.553v0h139.372v-145.192h-99.705c-31.343 0-56.751-25.408-56.751-56.751v0-112.263h153.977l-21.288-161.684h-132.689v-395.318h317.171v1024z" />
<glyph unicode="&#xe93b;" glyph-name="pin1" horiz-adv-x="768" d="M384-64c-0.002 0-0.004 0-0.006 0-10.087 0-19.179 4.258-25.577 11.075l-0.017 0.019c-14.763 15.787-358.4 389.461-358.4 642.048 3.998 205.693 171.685 370.907 377.96 370.907 2.124 0 4.244-0.018 6.36-0.052l-0.319 0.004c1.797 0.031 3.916 0.048 6.040 0.048 206.275 0 373.962-165.214 377.954-370.533l0.006-0.373c0-252.587-343.637-626.261-358.4-642.048-6.433-6.812-15.517-11.062-25.594-11.093h-0.006zM384 775.765c-0.898 0.015-1.958 0.024-3.020 0.024-103.797 0-188.176-83.142-190.172-186.461l-0.003-0.187c2.046-103.469 86.406-186.563 190.173-186.563 1.062 0 2.123 0.009 3.181 0.026l-0.159-0.002c0.899-0.015 1.959-0.024 3.022-0.024 103.767 0 188.127 83.094 190.17 186.372l0.003 0.191c-1.999 103.506-86.377 186.648-190.175 186.648-1.062 0-2.122-0.009-3.179-0.026l0.159 0.002z" />
<glyph unicode="&#xe93c;" glyph-name="arrow-left1" horiz-adv-x="597" d="M580.267 29.099l-446.891 418.901 446.891 418.901c10.477 9.807 17.006 23.721 17.006 39.159 0 14.297-5.599 27.287-14.724 36.896l0.022-0.023c-9.965 10.434-23.985 16.921-39.521 16.921-14.427 0-27.547-5.594-37.31-14.731l0.031 0.028-488.704-457.984c-10.483-9.807-17.015-23.725-17.015-39.168s6.532-29.361 16.985-39.14l0.030-0.028 488.704-458.155c9.732-9.109 22.852-14.702 37.279-14.702 15.536 0 29.556 6.487 39.501 16.9l0.020 0.021c9.133 9.604 14.752 22.626 14.752 36.959 0 15.475-6.548 29.42-17.025 39.215l-0.031 0.028z" />
<glyph unicode="&#xe93d;" glyph-name="arrow-right1" horiz-adv-x="597" d="M17.067 866.901l446.891-418.901-446.891-418.901c-10.477-9.807-17.006-23.721-17.006-39.159 0-14.297 5.599-27.287 14.724-36.896l-0.022 0.023c9.965-10.434 23.985-16.921 39.521-16.921 14.427 0 27.547 5.594 37.31 14.731l-0.031-0.028 488.704 457.984c10.483 9.807 17.015 23.725 17.015 39.168s-6.532 29.361-16.985 39.14l-0.030 0.028-488.704 458.155c-9.732 9.109-22.852 14.702-37.279 14.702-15.536 0-29.556-6.487-39.501-16.9l-0.020-0.021c-9.133-9.604-14.752-22.626-14.752-36.959 0-15.475 6.548-29.42 17.025-39.215l0.031-0.028z" />
<glyph unicode="&#xe93e;" glyph-name="arrow_grey_2" horiz-adv-x="1138" d="M1042.539 381.54h-977.15c-40.157 0-66.928 26.771-66.928 66.928s26.771 66.928 66.928 66.928h977.15c40.157 0 66.928-26.771 66.928-66.928s-33.464-66.928-66.928-66.928zM1042.539 381.54c-20.078 0-33.464 6.693-46.85 20.078l-414.954 421.647c-26.771 26.771-26.771 66.928 0 93.699s66.928 26.771 93.699 0l414.954-421.647c26.771-26.771 26.771-66.928 0-93.699-13.386-13.386-33.464-20.078-46.85-20.078zM620.892-40.107c-20.078 0-33.464 6.693-46.85 20.078-26.771 26.771-26.771 66.928 0 93.699l414.954 414.954c26.771 26.771 66.928 26.771 93.699 0s26.771-66.928 0-93.699l-414.954-414.954c-13.386-13.386-26.771-20.078-46.85-20.078z" />
<glyph unicode="&#xe93f;" glyph-name="icon-info1" d="M149.974 810.026c-92.661-92.66-149.974-220.67-149.974-362.066 0-282.789 229.246-512.035 512.035-512.035s512.035 229.246 512.035 512.035c0 141.395-57.312 269.405-149.973 362.065v0c-92.66 92.659-220.668 149.969-362.061 149.969s-269.401-57.311-362.061-149.97v0zM532.647 745.206c43.58 0 78.908-35.328 78.908-78.908s-35.328-78.908-78.908-78.908v0c-43.694 0.353-78.979 35.856-78.979 79.6 0 0.147 0 0.294 0.001 0.442v-0.023c0.353 43.043 35.327 77.8 78.42 77.8 0.196 0 0.392-0.001 0.588-0.002h-0.030zM643.687 216.724c-2.438-7.131-6.132-13.262-10.862-18.43l0.035 0.039c-25.703-28.402-62.619-46.245-103.708-46.498h-0.046c-2.796-0.083-6.086-0.13-9.386-0.13-16.887 0-33.485 1.233-49.711 3.613l1.842-0.222c-37.966 8.272-65.979 41.597-65.979 81.463 0 1.005 0.018 2.006 0.053 3.002l-0.004-0.144 12.978 84.321c8.675 48.58 17.281 98.34 25.956 146.99 0 3.262 1.11 6.454 1.11 9.716 0 20.82-6.454 27.76-26.997 30.258-9.951 1.046-18.786 2.561-27.422 4.594l1.466-0.291c-8.089 2.307-13.913 9.633-13.913 18.318 0 0.392 0.012 0.781 0.035 1.167l-0.003-0.053c1.11 8.675 6.454 13.88 17.281 16.24 4.428 0.702 9.534 1.104 14.733 1.104 1.238 0 2.47-0.023 3.696-0.068l-0.177 0.005h149.21c18.391 0 29.148-8.675 29.148-26.997-0.22-16.201-2.18-31.829-5.703-46.856l0.29 1.468c-9.716-56.214-20.82-111.040-30.258-167.532-3.262-18.391-7.565-36.713-9.716-55.104-0.237-2.258-0.372-4.878-0.372-7.53 0-6.921 0.921-13.626 2.647-20.001l-0.123 0.535c1.945-10.006 10.638-17.456 21.070-17.456 0.964 0 1.913 0.064 2.843 0.187l-0.109-0.012c10.861 1.523 20.684 4.565 29.745 8.935l-0.597-0.26c5.885 3.5 12.974 7.122 20.289 10.322l1.295 0.505c13.047 4.233 22.763-3.331 19.363-15.199z" />
<glyph unicode="&#xe941;" d="M1024 448c0-282.77-229.23-512-512-512s-512 229.23-512 512c0 282.77 229.23 512 512 512s512-229.23 512-512z" />
<glyph unicode="&#xe942;" glyph-name="icon_baknot" horiz-adv-x="1842" d="M920.937 815.214c-163.022 0-295.927-165.785-295.927-367.214s132.904-367.214 295.927-367.214 296.203 165.785 296.203 367.214-132.904 367.214-296.203 367.214zM920.937 163.678c-117.431 0-213.034 127.655-213.034 284.322s95.603 284.322 213.034 284.322 213.31-127.378 213.31-284.322-95.603-284.322-213.31-284.322zM1800.704 960h-1759.257c-22.89 0-41.446-18.556-41.446-41.446v0-941.107c0-22.89 18.556-41.446 41.446-41.446v0h1759.257c22.89 0 41.446 18.556 41.446 41.446v0 941.107c0 22.89-18.556 41.446-41.446 41.446v0zM82.893 877.107h177.666c-17.724-90.085-87.581-159.942-176.246-177.433l-1.42-0.234zM82.893 19.169v177.666c90.085-17.724 159.942-87.581 177.433-176.246l0.234-1.42zM1759.257 19.169h-177.666c17.608 90.082 87.541 159.922 176.261 177.163l1.405 0.227zM1759.257 280.557c-135.962-19.27-242.25-125.464-261.472-259.75l-0.192-1.638h-1153.312c-19.294 135.889-125.498 242.094-259.757 261.198l-1.631 0.19v335.162c135.933 19.203 242.185 125.455 261.2 259.764l0.188 1.624h1153.589c19.203-135.933 125.455-242.185 259.764-261.2l1.624-0.188v-335.162zM1759.257 699.441c-90.16 17.579-160.088 87.507-177.437 176.256l-0.23 1.411h177.666z" />
<glyph unicode="&#xe943;" d="M512-64c-283.234 0-512 228.766-512 512s228.766 512 512 512 512-228.766 512-512-228.766-512-512-512zM512 916.426c-259.268 0-468.426-209.157-468.426-468.426s209.157-468.426 468.426-468.426c259.268 0 468.426 209.157 468.426 468.426s-209.157 468.426-468.426 468.426z" />
<glyph unicode="&#xe944;" d="M444.46 258.451l-193.906 193.906c-8.715 8.715-8.715 21.787 0 30.502s21.787 8.715 30.502 0l163.404-163.404 311.557 311.557c8.715 8.715 21.787 8.715 30.502 0s8.715-21.787 0-30.502l-342.060-342.060z" />
<glyph unicode="&#xe945;" glyph-name="icon_how_03" horiz-adv-x="931" d="M139.643 960c-12.852 0-23.27-10.419-23.27-23.27s10.419-23.27 23.27-23.27v0h651.633c12.852 0 23.27 10.419 23.27 23.27s-10.419 23.27-23.27 23.27v0zM116.373 866.918c-12.852 0-23.27-10.419-23.27-23.27s10.419-23.27 23.27-23.27h698.173c12.852 0 23.27 10.419 23.27 23.27s-10.419 23.27-23.27 23.27v0zM93.082 773.816c-12.852 0-23.27-10.419-23.27-23.27v0-302.536h-46.541c-12.852 0-23.27-10.419-23.27-23.27v0-465.47c0-12.852 10.419-23.27 23.27-23.27v0h884.44c12.852 0 23.27 10.419 23.27 23.27v0 465.47c0 12.852-10.419 23.27-23.27 23.27v0h-46.623v302.536c0 12.852-10.419 23.27-23.27 23.27v0zM116.352 727.276h698.194v-279.265h-698.173zM525.626 448.010l-18.216 17.803zM688.601 448.010v0zM46.541 401.449h42.642c1.141-0.198 2.455-0.312 3.796-0.312s2.655 0.113 3.933 0.331l-0.137-0.019h737.122c1.141-0.198 2.455-0.312 3.796-0.312s2.655 0.113 3.933 0.331l-0.137-0.019h42.869v-418.908h-837.816zM372.367 331.638c-12.852 0-23.27-10.419-23.27-23.27s10.419-23.27 23.27-23.27v0h186.184c12.852 0 23.27 10.419 23.27 23.27s-10.419 23.27-23.27 23.27v0z" />
<glyph unicode="&#xe946;" glyph-name="icon_how_02" horiz-adv-x="1308" d="M0 960v-1024h56.889v967.111h1194.667v-967.111h56.889v1024zM170.667 789.333v-256h967.111v256zM227.556 732.444h853.333v-142.222h-853.333zM199.111 362.667v-56.889h768v56.889zM199.111 248.889v-56.889h881.778v56.889zM199.111 135.111v-56.889h654.222v56.889zM113.778-7.111v-56.889h85.333v56.889zM256-7.111v-56.889h85.333v56.889zM398.222-7.111v-56.889h85.333v56.889zM540.444-7.111v-56.889h85.333v56.889zM682.667-7.111v-56.889h85.333v56.889zM824.889-7.111v-56.889h85.333v56.889zM967.111-7.111v-56.889h85.333v56.889zM1109.333-7.111v-56.889h85.333v56.889z" />
<glyph unicode="&#xe947;" glyph-name="icon_how_01" horiz-adv-x="1240" d="M76.692 960c-42.479-0.577-76.693-35.148-76.693-77.709 0-0.088 0-0.175 0-0.263v0.014-919.094c0-14.883 12.065-26.947 26.947-26.947v0h1185.684c14.883 0 26.947 12.065 26.947 26.947v0 919.094c0 0.074 0 0.162 0 0.249 0 42.562-34.214 77.132-76.638 77.709l-0.054 0.001zM76.692 906.105h1086.195c12.63-0.124 22.82-10.392 22.82-23.039 0-0.361-0.008-0.719-0.025-1.076l0.002 0.051v-245.41h-1131.789v245.41c-0.015 0.306-0.023 0.665-0.023 1.025 0 12.647 10.19 22.915 22.809 23.039h0.012zM458.105 852.211v-161.684h646.737v161.684zM161.684 825.263c-29.765 0-53.895-24.129-53.895-53.895s24.129-53.895 53.895-53.895c29.765 0 53.895 24.129 53.895 53.895v0c0 29.765-24.129 53.895-53.895 53.895v0zM323.368 825.263c-29.765 0-53.895-24.129-53.895-53.895s24.129-53.895 53.895-53.895c29.765 0 53.895 24.129 53.895 53.895v0c0 29.765-24.129 53.895-53.895 53.895v0zM512 798.316h538.947v-53.895h-538.947zM53.895 582.737h1131.789v-592.842h-1131.789zM322.587 474.947c-2.295 0.263-4.955 0.412-7.65 0.412-34.532 0-63.32-24.595-69.802-57.223l-0.075-0.453c-1.6-7.083-2.522-15.22-2.533-23.571v-0.008c0.412-15.593 2.767-30.464 6.83-44.613l-0.308 1.255c-4.229-3.386-6.913-8.548-6.913-14.338 0-1.335 0.143-2.637 0.414-3.892l-0.022 0.121c2.264-19.402 9.997-24.253 14.848-24.738 3.388-17.343 12.437-32.162 25.109-42.807l0.114-0.093c0-12.908 0.458-22.744-0.781-36.891-15.037-41.337-115.496-29.777-120.131-109.487v-20.938h323.368v20.938c-4.635 79.71-104.771 68.123-119.673 109.46-1.24 14.147-0.781 23.983-0.781 36.891 12.625 10.787 21.528 25.603 24.719 42.44l0.073 0.46c4.904 0.431 12.638 5.389 14.902 24.738 0.243 1.119 0.382 2.405 0.382 3.723 0 5.813-2.703 10.994-6.92 14.357l-0.037 0.029c4.058 12.97 6.427 27.888 6.494 43.35v0.035c0.005 0.404 0.008 0.882 0.008 1.361 0 7.856-0.748 15.538-2.177 22.978l0.121-0.759c-2.177 21.756-18.987 38.999-40.345 41.824l-0.238 0.026c-7.878 9.682-19.794 15.817-33.142 15.817-2.064 0-4.093-0.147-6.078-0.43l0.227 0.027zM646.737 421.053v-53.895h431.158v53.895h-431.158zM646.737 286.316v-53.895h431.158v53.895h-431.158zM646.737 151.579v-53.895h350.316v53.895h-350.316z" />
</font>
</defs>
</svg>
